<svg width="38" height="38" viewBox="0 0 38 38" fill="none" xmlns="http://www.w3.org/2000/svg">
<path d="M3.16992 19.0032C3.17176 26.7922 8.83572 33.4242 16.5285 34.6449V23.579H12.5116V19.0032H16.5333V15.5198C16.3535 13.8693 16.9172 12.2243 18.0717 11.031C19.2261 9.83768 20.8516 9.21977 22.5072 9.34483C23.6955 9.36403 24.8809 9.46986 26.0538 9.6615V13.5549H24.0525C23.3635 13.4647 22.6708 13.6922 22.1696 14.1735C21.6683 14.6547 21.4127 15.3376 21.4748 16.0297V19.0032H25.8623L25.1608 23.5806H21.4748V34.6449C29.7944 33.3301 35.6284 25.732 34.7503 17.355C33.8722 8.97808 26.5895 2.75489 18.1781 3.19387C9.76666 3.63284 3.17126 10.5803 3.16992 19.0032Z" fill="#FBF1D2"/>
</svg>
