<svg width="1199" height="881" viewBox="0 0 1199 881" fill="none" xmlns="http://www.w3.org/2000/svg">
<path d="M459.714 538.258C464.874 515.038 469.776 492.334 474.42 470.146C476.312 460.858 478.29 451.054 480.354 440.734C482.418 430.414 484.396 420.266 486.288 410.29C488.18 400.314 489.986 390.682 491.706 381.394C493.426 372.106 494.888 363.592 496.092 355.852C501.08 354.304 505.982 353.014 510.798 351.982C515.614 350.778 520.516 349.746 525.504 348.886C530.664 348.026 535.48 347.596 539.952 347.596C547.692 347.596 554.142 348.886 559.302 351.466C564.634 354.046 568.934 357.572 572.202 362.044C575.47 366.344 577.792 371.418 579.168 377.266C580.544 383.114 581.232 389.392 581.232 396.1C581.232 405.732 579.426 415.02 575.814 423.964C572.374 432.908 567.644 440.906 561.624 447.958C555.776 454.838 548.982 460.342 541.242 464.47C533.674 468.598 525.762 470.662 517.506 470.662H514.668C513.292 476.51 512.002 482.874 510.798 489.754C509.594 496.634 508.562 502.998 507.702 508.846C506.498 515.726 505.38 522.606 504.348 529.486L459.714 538.258ZM531.696 378.814C529.804 390.166 527.912 400.916 526.02 411.064C524.128 421.212 522.064 432.048 519.828 443.572C522.58 442.884 525.418 441.336 528.342 438.928C531.438 436.348 534.276 433.08 536.856 429.124C539.436 424.996 541.5 420.266 543.048 414.934C544.596 409.602 545.37 404.012 545.37 398.164C545.37 391.8 543.908 386.984 540.984 383.716C538.232 380.448 535.136 378.814 531.696 378.814Z" fill="white"/>
<path d="M578.112 534.13L589.98 482.272C589.98 474.876 589.808 466.878 589.464 458.278C589.292 449.506 588.948 440.734 588.432 431.962C587.916 423.19 587.4 414.762 586.884 406.678C586.368 398.422 585.938 391.198 585.594 385.006C585.25 378.642 584.906 373.568 584.562 369.784C584.218 366 584.046 364.108 584.046 364.108L626.1 348.112V379.588C626.1 383.888 626.1 388.274 626.1 392.746C626.1 397.218 626.014 401.604 625.842 405.904C625.842 410.204 625.842 414.246 625.842 418.03C625.842 421.814 625.842 424.996 625.842 427.576C628.078 421.728 630.744 414.504 633.84 405.904C637.108 397.304 640.118 388.962 642.87 380.878C646.138 371.418 649.492 361.442 652.932 350.95L692.922 359.98C685.526 374.772 678.302 389.478 671.25 404.098C668.326 410.462 665.23 417.084 661.962 423.964C658.694 430.672 655.426 437.466 652.158 444.346C648.89 451.054 645.708 457.59 642.612 463.954C639.516 470.318 636.678 476.252 634.098 481.756C633.238 486.228 632.12 491.13 630.744 496.462C629.54 501.794 628.336 506.868 627.132 511.684C625.584 517.36 623.95 523.036 622.23 528.712L578.112 534.13Z" fill="white"/>
<path d="M680.483 538.258C684.439 519.338 688.224 500.676 691.836 482.272C693.384 474.532 694.931 466.448 696.479 458.02C698.027 449.592 699.489 441.336 700.865 433.252C702.413 424.996 703.703 417.084 704.735 409.516C705.939 401.776 706.971 394.724 707.831 388.36C703.875 387.844 699.834 387.672 695.706 387.844C691.75 388.016 687.793 387.5 683.837 386.296C684.009 383.544 684.095 380.362 684.095 376.75C684.095 373.138 684.181 369.526 684.353 365.914C684.525 361.958 684.698 357.744 684.87 353.272C689.342 353.616 693.813 353.874 698.285 354.046C702.757 354.218 707.229 354.304 711.701 354.304C720.473 354.304 728.901 354.132 736.985 353.788C745.241 353.272 752.81 352.756 759.69 352.24C766.742 351.552 773.621 350.778 780.329 349.918L777.492 363.85C776.632 367.806 775.771 371.848 774.911 375.976C774.223 380.104 773.535 383.63 772.847 386.554C769.063 387.586 765.193 388.36 761.237 388.876C757.453 389.22 753.669 389.736 749.885 390.424C748.681 396.272 747.392 402.808 746.016 410.032C744.64 417.084 743.264 424.48 741.888 432.22C740.684 439.788 739.48 447.528 738.276 455.44C737.072 463.352 735.868 470.92 734.664 478.144C731.912 495.172 729.331 512.802 726.923 531.034L680.483 538.258Z" fill="white"/>
<path d="M752.802 538.516C757.618 514.436 762.262 490.958 766.734 468.082C768.454 458.278 770.26 448.13 772.152 437.638C774.044 426.974 775.764 416.482 777.312 406.162C779.032 395.842 780.58 385.866 781.956 376.234C783.504 366.43 784.708 357.572 785.568 349.66C789.524 349.832 793.136 350.09 796.404 350.434C799.844 350.606 803.198 350.778 806.466 350.95C809.734 351.122 813.002 351.294 816.27 351.466C819.71 351.466 823.408 351.466 827.364 351.466C824.44 363.678 821.516 375.89 818.592 388.102C815.84 400.314 813.26 412.612 810.852 424.996L836.394 422.158C838.802 409.946 840.952 398.164 842.844 386.812C844.736 375.288 847.23 363.42 850.326 351.208C854.282 350.52 858.668 350.004 863.484 349.66C868.3 349.144 872.772 348.714 876.9 348.37C881.028 348.026 884.468 347.768 887.22 347.596C890.144 347.252 891.606 347.08 891.606 347.08C889.198 354.82 886.876 363.334 884.64 372.622C882.576 381.738 880.512 391.284 878.448 401.26C876.384 411.064 874.406 421.04 872.514 431.188C870.622 441.336 868.902 450.968 867.354 460.084C863.57 481.928 860.044 504.288 856.776 527.164L816.528 531.808C818.764 521.488 820.742 511.426 822.462 501.622C824.182 493.366 825.902 484.766 827.622 475.822C829.514 466.878 830.976 459.224 832.008 452.86L806.982 455.182C805.778 461.718 804.316 469.286 802.596 477.886C801.048 486.486 799.586 494.656 798.21 502.396C796.318 511.684 794.426 520.972 792.534 530.26L752.802 538.516Z" fill="white"/>
<path d="M1009.1 398.422C1009.1 412.526 1007.55 425.856 1004.46 438.412C1001.53 450.796 997.577 462.234 992.589 472.726C987.601 483.046 981.753 492.334 975.045 500.59C968.509 508.674 961.629 515.64 954.405 521.488C947.181 527.164 939.871 531.55 932.475 534.646C925.079 537.57 918.027 539.032 911.319 539.032C905.643 539.032 900.483 538 895.839 535.936C891.195 533.7 887.153 530.518 883.713 526.39C880.273 522.09 877.521 516.672 875.457 510.136C873.565 503.428 872.619 495.43 872.619 486.142C872.619 476.51 873.823 466.362 876.231 455.698C878.639 445.034 881.907 434.456 886.035 423.964C890.163 413.472 895.237 403.496 901.257 394.036C907.277 384.576 913.899 376.234 921.123 369.01C928.347 361.614 936.087 355.766 944.343 351.466C952.599 347.166 961.199 345.016 970.143 345.016C977.883 345.016 984.247 346.65 989.235 349.918C994.395 353.014 998.351 357.142 1001.1 362.302C1004.03 367.29 1006.09 372.966 1007.29 379.33C1008.5 385.694 1009.1 392.058 1009.1 398.422ZM911.061 479.434C911.061 481.326 911.405 483.304 912.093 485.368C912.781 487.432 913.727 489.238 914.931 490.786C916.135 492.334 917.597 493.71 919.317 494.914C921.209 495.946 923.187 496.462 925.251 496.462C932.991 496.462 939.871 493.796 945.891 488.464C951.911 483.132 956.899 476.596 960.855 468.856C964.811 461.116 967.821 452.86 969.885 444.088C972.121 435.316 973.239 427.318 973.239 420.094C973.239 418.03 973.067 415.794 972.723 413.386C972.551 410.978 972.035 408.742 971.175 406.678C970.487 404.614 969.283 402.894 967.563 401.518C966.015 399.97 963.865 399.196 961.113 399.196C955.609 399.196 950.535 400.572 945.891 403.324C941.247 406.076 937.033 409.774 933.249 414.418C929.637 418.89 926.455 424.05 923.703 429.898C920.951 435.574 918.543 441.422 916.479 447.442C914.587 453.29 913.211 459.052 912.351 464.728C911.491 470.404 911.061 475.306 911.061 479.434Z" fill="white"/>
<path d="M993.147 539.29C998.307 514.522 1003.21 490.528 1007.85 467.308C1009.57 457.332 1011.38 447.012 1013.27 436.348C1015.34 425.684 1017.23 415.192 1018.95 404.872C1020.67 394.38 1022.22 384.404 1023.59 374.944C1024.97 365.312 1026 356.626 1026.69 348.886C1028.92 349.058 1030.82 349.144 1032.36 349.144C1033.91 349.144 1035.72 349.144 1037.78 349.144C1040.19 349.144 1043.11 349.144 1046.55 349.144C1049.99 348.972 1053.43 348.8 1056.87 348.628C1060.31 348.456 1064.01 348.284 1067.97 348.112C1070.38 360.152 1072.53 371.762 1074.42 382.942C1076.31 392.746 1078.2 402.808 1080.09 413.128C1082.16 423.448 1083.96 432.22 1085.51 439.444C1086.2 436.004 1086.97 432.048 1087.83 427.576C1088.69 422.932 1089.64 418.116 1090.67 413.128C1091.7 408.14 1092.65 403.152 1093.51 398.164C1094.54 393.004 1095.57 387.93 1096.61 382.942C1099.01 371.762 1101.51 360.238 1104.09 348.37L1135.56 344.5C1129.72 370.816 1124.56 395.756 1120.08 419.32C1118.02 429.468 1115.96 439.788 1113.89 450.28C1112 460.6 1110.19 470.576 1108.47 480.208C1106.75 489.668 1105.29 498.526 1104.09 506.782C1102.88 514.866 1101.94 521.66 1101.25 527.164C1100.73 527.164 1098.67 527.594 1095.06 528.454C1091.62 529.142 1087.58 530.002 1082.93 531.034C1078.46 532.066 1073.9 533.098 1069.26 534.13C1064.79 535.162 1061.43 536.108 1059.2 536.968C1058.16 523.208 1057.05 510.136 1055.84 497.752C1055.33 492.42 1054.72 487.002 1054.04 481.498C1053.52 475.822 1052.92 470.404 1052.23 465.244C1051.54 460.084 1050.85 455.268 1050.17 450.796C1049.48 446.324 1048.79 442.454 1048.1 439.186C1047.59 442.454 1046.9 446.238 1046.04 450.538C1045.18 454.838 1044.32 459.396 1043.46 464.212C1042.6 469.028 1041.74 474.102 1040.88 479.434C1040.02 484.594 1039.07 489.582 1038.04 494.398C1035.8 505.922 1033.4 517.962 1030.82 530.518L993.147 539.29Z" fill="white"/>
<path d="M360.103 815.756C358.699 822.62 356.983 829.796 354.955 837.284C352.927 844.616 350.197 851.324 346.765 857.408C343.489 863.336 339.433 868.328 334.597 872.384C329.917 876.284 324.301 878.234 317.749 878.234C313.381 878.234 308.623 877.298 303.475 875.426C298.483 873.554 292.945 870.356 286.861 865.832L303.007 829.796C303.787 831.356 305.269 832.76 307.453 834.008C309.793 835.1 312.289 835.646 314.941 835.646C316.813 835.646 318.451 834.086 319.855 830.966C321.415 827.846 322.741 824.258 323.833 820.202C324.925 815.99 325.783 811.7 326.407 807.332C327.031 802.964 327.499 799.454 327.811 796.802C330.775 781.67 333.583 766.616 336.235 751.64C338.887 736.508 342.007 721.454 345.595 706.478C352.615 705.854 359.479 704.918 366.187 703.67C373.051 702.266 379.915 700.628 386.779 698.756C384.439 706.712 382.021 715.76 379.525 725.9C377.029 736.04 374.611 746.414 372.271 757.022C369.931 767.63 367.669 778.082 365.485 788.378C363.457 798.518 361.663 807.644 360.103 815.756Z" fill="white"/>
<path d="M444.646 873.32C440.746 873.944 436.456 874.646 431.776 875.426C427.096 876.206 422.884 876.908 419.14 877.532C419.764 872.384 420.388 867.314 421.012 862.322C421.48 857.954 421.87 853.586 422.182 849.218C422.65 844.85 423.04 841.106 423.352 837.986H402.994L393.634 871.682C390.202 872.15 386.146 872.696 381.466 873.32C376.786 873.788 372.418 874.256 368.362 874.724C363.37 875.348 358.456 875.972 353.62 876.596C359.86 855.848 366.022 835.412 372.106 815.288C374.602 806.864 377.176 798.05 379.828 788.846C382.636 779.642 385.366 770.516 388.018 761.468C390.826 752.264 393.478 743.45 395.974 735.026C398.47 726.602 400.654 718.88 402.526 711.86C413.134 711.08 423.898 710.144 434.818 709.052C445.894 707.96 456.658 706.478 467.11 704.606C466.642 709.598 466.096 715.838 465.472 723.326C465.004 730.658 464.536 738.692 464.068 747.428C463.6 756.164 463.132 765.29 462.664 774.806C462.196 784.322 461.728 793.682 461.26 802.886C460.48 824.414 459.622 847.268 458.686 871.448C454.006 872.228 449.326 872.852 444.646 873.32ZM408.61 814.586C409.234 814.586 410.326 814.586 411.886 814.586C413.602 814.43 415.318 814.352 417.034 814.352C418.906 814.196 420.622 814.118 422.182 814.118C423.742 813.962 424.834 813.806 425.458 813.65C425.458 812.714 425.536 811.154 425.692 808.97C426.004 806.63 426.238 804.056 426.394 801.248C426.706 798.284 427.018 795.086 427.33 791.654C427.642 788.222 427.954 784.868 428.266 781.592C428.89 773.636 429.67 765.056 430.606 755.852L432.01 735.494L428.5 735.728L423.118 755.852L408.61 814.586Z" fill="white"/>
<path d="M473.572 880.106C475.6 858.266 477.472 836.816 479.188 815.756C479.968 807.02 480.67 797.816 481.294 788.144C482.074 778.472 482.698 768.956 483.166 759.596C483.79 750.08 484.258 740.954 484.57 732.218C484.882 723.326 485.116 715.214 485.272 707.882C489.016 707.882 492.994 707.804 497.206 707.648C501.574 707.492 505.474 707.336 508.906 707.18C512.494 707.024 515.536 706.868 518.032 706.712C520.528 706.4 521.776 706.244 521.776 706.244C520.06 724.34 518.578 739.238 517.33 750.938C516.082 762.482 515.068 771.92 514.288 779.252C513.664 786.428 513.04 793.37 512.416 800.078C511.948 806.786 511.402 813.026 510.778 818.798C510.154 824.57 509.608 829.484 509.14 833.54H513.352L539.56 709.052C543.772 708.896 548.062 708.662 552.43 708.35C556.33 708.038 560.386 707.804 564.598 707.648C568.966 707.492 572.944 707.18 576.532 706.712C574.348 713.576 572.086 721.142 569.746 729.41C567.562 737.678 565.222 746.258 562.726 755.15C560.386 764.042 558.046 773.09 555.706 782.294C553.522 791.498 551.338 800.39 549.154 808.97C544.162 829.094 539.17 849.764 534.178 870.98L473.572 880.106Z" fill="white"/>
<path d="M634.542 873.32C630.642 873.944 626.352 874.646 621.672 875.426C616.992 876.206 612.781 876.908 609.036 877.532C609.661 872.384 610.284 867.314 610.908 862.322C611.376 857.954 611.766 853.586 612.078 849.218C612.546 844.85 612.936 841.106 613.248 837.986H592.891L583.53 871.682C580.098 872.15 576.042 872.696 571.362 873.32C566.682 873.788 562.314 874.256 558.258 874.724C553.266 875.348 548.352 875.972 543.516 876.596C549.756 855.848 555.919 835.412 562.003 815.288C564.499 806.864 567.072 798.05 569.724 788.846C572.532 779.642 575.262 770.516 577.914 761.468C580.722 752.264 583.374 743.45 585.87 735.026C588.366 726.602 590.55 718.88 592.422 711.86C603.03 711.08 613.794 710.144 624.714 709.052C635.79 707.96 646.554 706.478 657.006 704.606C656.538 709.598 655.992 715.838 655.368 723.326C654.9 730.658 654.432 738.692 653.964 747.428C653.496 756.164 653.028 765.29 652.56 774.806C652.092 784.322 651.624 793.682 651.156 802.886C650.376 824.414 649.518 847.268 648.582 871.448C643.902 872.228 639.222 872.852 634.542 873.32ZM598.506 814.586C599.13 814.586 600.222 814.586 601.782 814.586C603.498 814.43 605.214 814.352 606.93 814.352C608.802 814.196 610.518 814.118 612.078 814.118C613.638 813.962 614.73 813.806 615.354 813.65C615.354 812.714 615.433 811.154 615.589 808.97C615.901 806.63 616.134 804.056 616.29 801.248C616.602 798.284 616.915 795.086 617.227 791.654C617.539 788.222 617.85 784.868 618.162 781.592C618.786 773.636 619.567 765.056 620.503 755.852L621.906 735.494L618.396 735.728L613.014 755.852L598.506 814.586Z" fill="white"/>
<path d="M753.325 820.202C753.325 828.938 751.609 836.894 748.177 844.07C744.901 851.09 740.377 857.174 734.605 862.322C728.989 867.47 722.281 871.448 714.481 874.256C706.837 877.064 698.569 878.468 689.677 878.468C683.437 878.468 677.197 876.83 670.957 873.554C664.717 870.122 658.711 864.74 652.939 857.408L670.255 823.478C671.347 825.506 672.985 827.612 675.169 829.796C677.353 831.824 679.771 833.618 682.423 835.178C685.231 836.738 687.961 838.064 690.613 839.156C693.421 840.092 695.917 840.56 698.101 840.56C699.973 840.56 701.923 840.248 703.951 839.624C705.979 839 707.851 838.064 709.567 836.816C711.283 835.568 712.609 834.164 713.545 832.604C714.637 830.888 715.183 828.938 715.183 826.754C715.183 823.01 713.935 819.578 711.439 816.458C709.099 813.182 706.135 810.14 702.547 807.332C698.959 804.368 695.059 801.404 690.847 798.44C686.635 795.476 682.735 792.356 679.147 789.08C675.715 785.804 672.751 782.138 670.255 778.082C667.759 774.026 666.511 769.502 666.511 764.51C666.511 756.398 668.929 748.832 673.765 741.812C678.601 734.792 684.607 728.786 691.783 723.794C699.115 718.646 707.071 714.59 715.651 711.626C724.231 708.662 732.343 707.18 739.987 707.18C744.199 707.18 748.177 707.726 751.921 708.818C755.665 709.754 758.863 711.392 761.515 713.732C764.323 715.916 766.507 718.724 768.067 722.156C769.783 725.588 770.641 729.878 770.641 735.026C770.641 737.21 770.407 739.394 769.939 741.578C769.627 743.762 769.315 746.102 769.003 748.598L735.073 758.426C735.385 757.178 735.619 755.93 735.775 754.682C736.087 753.434 736.243 752.186 736.243 750.938C736.243 746.258 735.385 742.904 733.669 740.876C732.109 738.692 730.003 737.6 727.351 737.6C726.103 737.6 724.543 738.068 722.671 739.004C720.955 739.94 719.161 741.188 717.289 742.748C715.573 744.152 714.091 745.868 712.843 747.896C711.595 749.924 710.971 752.108 710.971 754.448C710.971 758.192 711.985 761.312 714.013 763.808C716.197 766.304 718.849 768.644 721.969 770.828C725.089 773.012 728.443 775.274 732.031 777.614C735.775 779.798 739.207 782.684 742.327 786.272C745.447 789.86 748.021 794.384 750.049 799.844C752.233 805.148 753.325 811.934 753.325 820.202Z" fill="white"/>
<path d="M850.128 827.69C846.384 836.27 842.172 843.758 837.492 850.154C832.968 856.394 828.132 861.698 822.984 866.066C817.992 870.278 812.922 873.398 807.774 875.426C802.626 877.454 797.634 878.468 792.798 878.468C787.962 878.468 783.516 877.376 779.46 875.192C775.56 873.008 772.128 869.732 769.164 865.364C766.2 860.996 763.782 855.614 761.91 849.218C760.194 842.822 759.336 835.334 759.336 826.754C759.336 812.09 761.364 797.66 765.42 783.464C769.476 769.112 775.17 756.242 782.502 744.854C789.834 733.466 798.492 724.34 808.476 717.476C818.616 710.456 829.77 706.946 841.938 706.946C845.682 706.946 849.27 707.726 852.702 709.286C856.134 710.846 859.098 713.03 861.594 715.838C864.09 718.646 866.04 722.078 867.444 726.134C869.004 730.19 869.784 734.714 869.784 739.706C869.784 740.642 869.784 741.656 869.784 742.748C869.784 743.684 869.706 744.698 869.55 745.79L838.896 753.98C837.024 750.08 834.84 748.13 832.344 748.13C829.848 748.13 827.196 749.612 824.388 752.576C821.736 755.384 819.084 759.128 816.432 763.808C813.78 768.332 811.206 773.48 808.71 779.252C806.214 784.868 804.03 790.562 802.158 796.334C800.286 802.106 798.726 807.644 797.478 812.948C796.386 818.096 795.84 822.308 795.84 825.584C795.84 830.576 796.464 834.086 797.712 836.114C799.116 838.142 800.91 839.156 803.094 839.156C804.81 839.156 806.76 838.532 808.944 837.284C811.128 835.88 813.156 834.164 815.028 832.136C816.9 829.952 818.616 827.534 820.176 824.882C821.736 822.23 822.828 819.578 823.452 816.926L850.128 827.69Z" fill="white"/>
<path d="M848.036 878.234C852.248 857.486 856.304 837.206 860.204 817.394C861.608 808.97 863.168 800.234 864.884 791.186C866.6 781.982 868.16 772.934 869.564 764.042C871.124 754.994 872.528 746.336 873.776 738.068C875.18 729.644 876.272 722 877.052 715.136C885.944 712.328 895.538 710.3 905.834 709.052C916.13 707.648 926.348 706.946 936.488 706.946C942.572 706.946 947.564 707.648 951.464 709.052C955.52 710.456 958.64 712.484 960.824 715.136C963.164 717.632 964.802 720.596 965.738 724.028C966.674 727.46 967.142 731.282 967.142 735.494C967.142 741.734 966.05 747.896 963.866 753.98C961.682 759.908 958.718 765.602 954.974 771.062C951.386 776.366 947.174 781.28 942.338 785.804C937.658 790.172 932.588 793.76 927.128 796.568C929.936 802.808 932.9 809.672 936.02 817.16C939.296 824.492 942.338 831.512 945.146 838.22C948.266 846.02 951.464 853.82 954.74 861.62L918.47 874.256C915.35 864.272 912.542 854.912 910.046 846.176C908.954 842.588 907.862 838.922 906.77 835.178C905.678 831.278 904.664 827.612 903.728 824.18C902.792 820.748 902.012 817.706 901.388 815.054C900.764 812.246 900.374 809.984 900.218 808.268L897.176 809.204C896.24 814.196 895.07 820.046 893.666 826.754C892.418 833.462 891.248 839.936 890.156 846.176C888.752 853.508 887.348 860.918 885.944 868.406L848.036 878.234ZM903.026 776.678C905.99 776.366 909.578 775.118 913.79 772.934C918.158 770.75 922.292 768.176 926.192 765.212C930.092 762.092 933.446 758.894 936.254 755.618C939.062 752.342 940.466 749.456 940.466 746.96C940.466 745.244 939.92 743.918 938.828 742.982C937.736 741.89 936.176 741.11 934.148 740.642C932.276 740.018 930.17 739.628 927.83 739.472C925.49 739.316 923.072 739.238 920.576 739.238C918.86 739.238 917.066 739.316 915.194 739.472C913.478 739.472 911.918 739.472 910.514 739.472L903.026 776.678Z" fill="white"/>
<path d="M990.855 873.32C989.451 873.32 986.643 873.554 982.431 874.022C978.375 874.334 974.163 874.802 969.795 875.426C965.427 875.894 961.449 876.362 957.861 876.83C954.429 877.298 952.557 877.61 952.245 877.766C953.805 871.058 955.365 863.648 956.925 855.536C958.641 847.268 960.357 838.688 962.073 829.796C963.789 820.748 965.427 811.622 966.987 802.418C968.547 793.214 970.029 784.322 971.433 775.742C974.709 755.774 977.985 735.26 981.261 714.2L1017.77 708.35C1014.18 729.254 1010.67 749.768 1007.23 769.892C1005.83 778.472 1004.35 787.364 1002.79 796.568C1001.39 805.772 999.903 814.898 998.343 823.946C996.939 832.994 995.613 841.808 994.365 850.388C993.117 858.812 991.947 866.456 990.855 873.32Z" fill="white"/>
<path d="M997.676 878.234C1002.36 857.174 1006.8 836.582 1011.01 816.458C1012.73 808.034 1014.52 799.142 1016.4 789.782C1018.27 780.422 1020.06 771.218 1021.78 762.17C1023.49 753.122 1025.13 744.386 1026.69 735.962C1028.25 727.538 1029.58 719.816 1030.67 712.796C1035.19 711.392 1039.64 710.222 1044.01 709.286C1048.38 708.194 1052.82 707.258 1057.35 706.478C1062.03 705.698 1066.39 705.308 1070.45 705.308C1077.47 705.308 1083.32 706.478 1088 708.818C1092.84 711.158 1096.74 714.356 1099.7 718.412C1102.66 722.312 1104.77 726.914 1106.02 732.218C1107.27 737.522 1107.89 743.216 1107.89 749.3C1107.89 758.036 1106.25 766.46 1102.98 774.572C1099.86 782.684 1095.57 789.938 1090.11 796.334C1084.8 802.574 1078.64 807.566 1071.62 811.31C1064.76 815.054 1057.58 816.926 1050.09 816.926H1047.52C1046.27 822.23 1045.1 828.002 1044.01 834.242C1042.92 840.482 1041.98 846.254 1041.2 851.558C1040.11 857.798 1039.09 864.038 1038.16 870.278L997.676 878.234ZM1062.96 733.622C1061.25 743.918 1059.53 753.668 1057.81 762.872C1056.1 772.076 1054.23 781.904 1052.2 792.356C1054.69 791.732 1057.27 790.328 1059.92 788.144C1062.73 785.804 1065.3 782.84 1067.64 779.252C1069.98 775.508 1071.85 771.218 1073.26 766.382C1074.66 761.546 1075.36 756.476 1075.36 751.172C1075.36 745.4 1074.04 741.032 1071.39 738.068C1068.89 735.104 1066.08 733.622 1062.96 733.622Z" fill="white"/>
<path d="M1108.1 878.234C1111.69 861.074 1115.12 844.148 1118.4 827.456C1119.8 820.436 1121.21 813.104 1122.61 805.46C1124.01 797.816 1125.34 790.328 1126.59 782.996C1127.99 775.508 1129.16 768.332 1130.1 761.468C1131.19 754.448 1132.13 748.052 1132.91 742.28C1129.32 741.812 1125.65 741.656 1121.91 741.812C1118.32 741.968 1114.73 741.5 1111.14 740.408C1111.3 737.912 1111.38 735.026 1111.38 731.75C1111.38 728.474 1111.46 725.198 1111.61 721.922C1111.77 718.334 1111.92 714.512 1112.08 710.456C1116.14 710.768 1120.19 711.002 1124.25 711.158C1128.3 711.314 1132.36 711.392 1136.42 711.392C1144.37 711.392 1152.02 711.236 1159.35 710.924C1166.84 710.456 1173.7 709.988 1179.94 709.52C1186.34 708.896 1192.58 708.194 1198.66 707.414L1196.09 720.05C1195.31 723.638 1194.53 727.304 1193.75 731.048C1193.12 734.792 1192.5 737.99 1191.87 740.642C1188.44 741.578 1184.93 742.28 1181.34 742.748C1177.91 743.06 1174.48 743.528 1171.05 744.152C1169.96 749.456 1168.79 755.384 1167.54 761.936C1166.29 768.332 1165.04 775.04 1163.79 782.06C1162.7 788.924 1161.61 795.944 1160.52 803.12C1159.43 810.296 1158.33 817.16 1157.24 823.712C1154.75 839.156 1152.41 855.146 1150.22 871.682L1108.1 878.234Z" fill="white"/>
<path d="M434.355 660.143C437.215 647.273 439.932 634.689 442.506 622.391C443.555 617.243 444.651 611.809 445.795 606.089C446.939 600.369 448.035 594.744 449.084 589.215C450.133 583.686 451.134 578.347 452.087 573.199C453.04 568.051 453.851 563.332 454.518 559.042C457.283 558.184 460 557.469 462.669 556.897C465.338 556.23 468.055 555.658 470.82 555.181C473.68 554.704 476.349 554.466 478.828 554.466C483.118 554.466 486.693 555.181 489.553 556.611C492.508 558.041 494.892 559.995 496.703 562.474C498.514 564.857 499.801 567.67 500.564 570.911C501.327 574.152 501.708 577.632 501.708 581.35C501.708 586.689 500.707 591.837 498.705 596.794C496.798 601.751 494.177 606.184 490.84 610.093C487.599 613.906 483.833 616.957 479.543 619.245C475.348 621.533 470.963 622.677 466.387 622.677H464.814C464.051 625.918 463.336 629.446 462.669 633.259C462.002 637.072 461.43 640.6 460.953 643.841C460.286 647.654 459.666 651.468 459.094 655.281L434.355 660.143ZM474.252 571.769C473.203 578.061 472.155 584.019 471.106 589.644C470.057 595.269 468.913 601.275 467.674 607.662C469.199 607.281 470.772 606.423 472.393 605.088C474.109 603.658 475.682 601.847 477.112 599.654C478.542 597.366 479.686 594.744 480.544 591.789C481.402 588.834 481.831 585.735 481.831 582.494C481.831 578.967 481.021 576.297 479.4 574.486C477.875 572.675 476.159 571.769 474.252 571.769Z" fill="white"/>
<path d="M490.112 660.286C492.781 646.939 495.355 633.926 497.834 621.247C498.787 615.813 499.788 610.188 500.837 604.373C501.885 598.462 502.839 592.647 503.697 586.927C504.65 581.207 505.508 575.678 506.271 570.339C507.129 564.905 507.796 559.995 508.273 555.61C510.465 555.705 512.467 555.848 514.279 556.039C516.185 556.134 518.044 556.23 519.856 556.325C521.667 556.42 523.478 556.516 525.29 556.611C527.196 556.611 529.246 556.611 531.439 556.611C529.818 563.38 528.197 570.148 526.577 576.917C525.051 583.686 523.621 590.502 522.287 597.366L536.444 595.793C537.778 589.024 538.97 582.494 540.019 576.202C541.067 569.815 542.45 563.237 544.166 556.468C546.358 556.087 548.789 555.801 551.459 555.61C554.128 555.324 556.607 555.086 558.895 554.895C561.183 554.704 563.089 554.561 564.615 554.466C566.235 554.275 567.046 554.18 567.046 554.18C565.711 558.47 564.424 563.189 563.185 568.337C562.041 573.39 560.897 578.681 559.753 584.21C558.609 589.644 557.512 595.173 556.464 600.798C555.415 606.423 554.462 611.761 553.604 616.814C551.506 628.921 549.552 641.315 547.741 653.994L525.433 656.568C526.672 650.848 527.768 645.271 528.722 639.837C529.675 635.261 530.628 630.494 531.582 625.537C532.63 620.58 533.441 616.337 534.013 612.81L520.142 614.097C519.474 617.72 518.664 621.914 517.711 626.681C516.853 631.448 516.042 635.976 515.28 640.266C514.231 645.414 513.182 650.562 512.134 655.71L490.112 660.286Z" fill="white"/>
<path d="M632.169 582.637C632.169 590.454 631.311 597.843 629.595 604.802C627.974 611.666 625.781 618.006 623.017 623.821C620.252 629.541 617.011 634.689 613.293 639.265C609.67 643.746 605.857 647.607 601.853 650.848C597.849 653.994 593.797 656.425 589.698 658.141C585.598 659.762 581.69 660.572 577.972 660.572C574.826 660.572 571.966 660 569.392 658.856C566.818 657.617 564.577 655.853 562.671 653.565C560.764 651.182 559.239 648.179 558.095 644.556C557.046 640.838 556.522 636.405 556.522 631.257C556.522 625.918 557.189 620.294 558.524 614.383C559.858 608.472 561.67 602.609 563.958 596.794C566.246 590.979 569.058 585.449 572.395 580.206C575.731 574.963 579.402 570.339 583.406 566.335C587.41 562.236 591.7 558.994 596.276 556.611C600.852 554.228 605.618 553.036 610.576 553.036C614.866 553.036 618.393 553.942 621.158 555.753C624.018 557.469 626.21 559.757 627.736 562.617C629.356 565.382 630.5 568.528 631.168 572.055C631.835 575.582 632.169 579.11 632.169 582.637ZM577.829 627.539C577.829 628.588 578.019 629.684 578.401 630.828C578.782 631.972 579.306 632.973 579.974 633.831C580.641 634.689 581.451 635.452 582.405 636.119C583.453 636.691 584.55 636.977 585.694 636.977C589.984 636.977 593.797 635.499 597.134 632.544C600.47 629.589 603.235 625.966 605.428 621.676C607.62 617.386 609.289 612.81 610.433 607.948C611.672 603.086 612.292 598.653 612.292 594.649C612.292 593.505 612.196 592.266 612.006 590.931C611.91 589.596 611.624 588.357 611.148 587.213C610.766 586.069 610.099 585.116 609.146 584.353C608.288 583.495 607.096 583.066 605.571 583.066C602.52 583.066 599.708 583.829 597.134 585.354C594.56 586.879 592.224 588.929 590.127 591.503C588.125 593.982 586.361 596.842 584.836 600.083C583.31 603.229 581.976 606.47 580.832 609.807C579.783 613.048 579.02 616.242 578.544 619.388C578.067 622.534 577.829 625.251 577.829 627.539Z" fill="white"/>
<path d="M635.481 660.143C637.674 649.656 639.771 639.313 641.773 629.112C642.631 624.822 643.489 620.341 644.347 615.67C645.205 610.999 646.015 606.423 646.778 601.942C647.636 597.366 648.351 592.981 648.923 588.786C649.59 584.496 650.162 580.587 650.639 577.06C648.446 576.774 646.206 576.679 643.918 576.774C641.725 576.869 639.533 576.583 637.34 575.916C637.435 574.391 637.483 572.627 637.483 570.625C637.483 568.623 637.531 566.621 637.626 564.619C637.721 562.426 637.817 560.091 637.912 557.612C640.391 557.803 642.869 557.946 645.348 558.041C647.827 558.136 650.305 558.184 652.784 558.184C657.646 558.184 662.317 558.089 666.798 557.898C671.374 557.612 675.569 557.326 679.382 557.04C683.291 556.659 687.104 556.23 690.822 555.753L689.249 563.475C688.772 565.668 688.296 567.908 687.819 570.196C687.438 572.484 687.056 574.438 686.675 576.059C684.578 576.631 682.433 577.06 680.24 577.346C678.143 577.537 676.045 577.823 673.948 578.204C673.281 581.445 672.566 585.068 671.803 589.072C671.04 592.981 670.278 597.08 669.515 601.37C668.848 605.565 668.18 609.855 667.513 614.24C666.846 618.625 666.178 622.82 665.511 626.824C663.986 636.262 662.556 646.034 661.221 656.139L635.481 660.143Z" fill="white"/>
<path d="M754.501 582.637C754.501 590.454 753.643 597.843 751.927 604.802C750.306 611.666 748.113 618.006 745.349 623.821C742.584 629.541 739.343 634.689 735.625 639.265C732.002 643.746 728.189 647.607 724.185 650.848C720.181 653.994 716.129 656.425 712.03 658.141C707.93 659.762 704.022 660.572 700.304 660.572C697.158 660.572 694.298 660 691.724 658.856C689.15 657.617 686.909 655.853 685.003 653.565C683.096 651.182 681.571 648.179 680.427 644.556C679.378 640.838 678.854 636.405 678.854 631.257C678.854 625.918 679.521 620.294 680.856 614.383C682.19 608.472 684.002 602.609 686.29 596.794C688.578 590.979 691.39 585.449 694.727 580.206C698.063 574.963 701.734 570.339 705.738 566.335C709.742 562.236 714.032 558.994 718.608 556.611C723.184 554.228 727.95 553.036 732.908 553.036C737.198 553.036 740.725 553.942 743.49 555.753C746.35 557.469 748.542 559.757 750.068 562.617C751.688 565.382 752.832 568.528 753.5 572.055C754.167 575.582 754.501 579.11 754.501 582.637ZM700.161 627.539C700.161 628.588 700.351 629.684 700.733 630.828C701.114 631.972 701.638 632.973 702.306 633.831C702.973 634.689 703.783 635.452 704.737 636.119C705.785 636.691 706.882 636.977 708.026 636.977C712.316 636.977 716.129 635.499 719.466 632.544C722.802 629.589 725.567 625.966 727.76 621.676C729.952 617.386 731.621 612.81 732.765 607.948C734.004 603.086 734.624 598.653 734.624 594.649C734.624 593.505 734.528 592.266 734.338 590.931C734.242 589.596 733.956 588.357 733.48 587.213C733.098 586.069 732.431 585.116 731.478 584.353C730.62 583.495 729.428 583.066 727.903 583.066C724.852 583.066 722.04 583.829 719.466 585.354C716.892 586.879 714.556 588.929 712.459 591.503C710.457 593.982 708.693 596.842 707.168 600.083C705.642 603.229 704.308 606.47 703.164 609.807C702.115 613.048 701.352 616.242 700.876 619.388C700.399 622.534 700.161 625.251 700.161 627.539Z" fill="white"/>
<path d="M808.292 624.679C808.292 630.018 807.244 634.88 805.146 639.265C803.144 643.555 800.38 647.273 796.852 650.419C793.42 653.565 789.321 655.996 784.554 657.712C779.883 659.428 774.83 660.286 769.396 660.286C765.583 660.286 761.77 659.285 757.956 657.283C754.143 655.186 750.473 651.897 746.945 647.416L757.527 626.681C758.194 627.92 759.195 629.207 760.53 630.542C761.865 631.781 763.343 632.878 764.963 633.831C766.679 634.784 768.347 635.595 769.968 636.262C771.684 636.834 773.21 637.12 774.544 637.12C775.688 637.12 776.88 636.929 778.119 636.548C779.358 636.167 780.502 635.595 781.551 634.832C782.6 634.069 783.41 633.211 783.982 632.258C784.65 631.209 784.983 630.018 784.983 628.683C784.983 626.395 784.221 624.298 782.695 622.391C781.265 620.389 779.454 618.53 777.261 616.814C775.069 615.003 772.685 613.191 770.111 611.38C767.537 609.569 765.154 607.662 762.961 605.66C760.864 603.658 759.052 601.418 757.527 598.939C756.002 596.46 755.239 593.696 755.239 590.645C755.239 585.688 756.717 581.064 759.672 576.774C762.628 572.484 766.298 568.814 770.683 565.763C775.164 562.617 780.026 560.138 785.269 558.327C790.512 556.516 795.47 555.61 800.141 555.61C802.715 555.61 805.146 555.944 807.434 556.611C809.722 557.183 811.677 558.184 813.297 559.614C815.013 560.949 816.348 562.665 817.301 564.762C818.35 566.859 818.874 569.481 818.874 572.627C818.874 573.962 818.731 575.296 818.445 576.631C818.255 577.966 818.064 579.396 817.873 580.921L797.138 586.927C797.329 586.164 797.472 585.402 797.567 584.639C797.758 583.876 797.853 583.114 797.853 582.351C797.853 579.491 797.329 577.441 796.28 576.202C795.327 574.867 794.04 574.2 792.419 574.2C791.657 574.2 790.703 574.486 789.559 575.058C788.51 575.63 787.414 576.393 786.27 577.346C785.221 578.204 784.316 579.253 783.553 580.492C782.79 581.731 782.409 583.066 782.409 584.496C782.409 586.784 783.029 588.691 784.268 590.216C785.603 591.741 787.224 593.171 789.13 594.506C791.037 595.841 793.087 597.223 795.279 598.653C797.567 599.988 799.664 601.751 801.571 603.944C803.478 606.137 805.051 608.901 806.29 612.238C807.625 615.479 808.292 619.626 808.292 624.679Z" fill="white"/>
<path d="M807.532 660.286C810.202 646.939 812.776 633.926 815.254 621.247C816.208 615.813 817.209 610.188 818.258 604.373C819.306 598.462 820.259 592.647 821.117 586.927C822.071 581.207 822.929 575.678 823.691 570.339C824.549 564.905 825.217 559.995 825.693 555.61C827.886 555.705 829.888 555.848 831.699 556.039C833.606 556.134 835.465 556.23 837.276 556.325C839.088 556.42 840.899 556.516 842.711 556.611C844.617 556.611 846.667 556.611 848.859 556.611C847.239 563.38 845.618 570.148 843.997 576.917C842.472 583.686 841.042 590.502 839.707 597.366L853.865 595.793C855.199 589.024 856.391 582.494 857.44 576.202C858.488 569.815 859.87 563.237 861.586 556.468C863.779 556.087 866.21 555.801 868.879 555.61C871.549 555.324 874.027 555.086 876.315 554.895C878.603 554.704 880.51 554.561 882.035 554.466C883.656 554.275 884.466 554.18 884.466 554.18C883.132 558.47 881.845 563.189 880.605 568.337C879.461 573.39 878.317 578.681 877.173 584.21C876.029 589.644 874.933 595.173 873.884 600.798C872.836 606.423 871.882 611.761 871.024 616.814C868.927 628.921 866.973 641.315 865.161 653.994L842.853 656.568C844.093 650.848 845.189 645.271 846.142 639.837C847.096 635.261 848.049 630.494 849.003 625.537C850.051 620.58 850.861 616.337 851.433 612.81L837.562 614.097C836.895 617.72 836.085 621.914 835.131 626.681C834.273 631.448 833.463 635.976 832.701 640.266C831.652 645.414 830.603 650.562 829.555 655.71L807.532 660.286Z" fill="white"/>
<path d="M949.59 582.637C949.59 590.454 948.732 597.843 947.016 604.802C945.395 611.666 943.202 618.006 940.438 623.821C937.673 629.541 934.432 634.689 930.714 639.265C927.091 643.746 923.278 647.607 919.274 650.848C915.27 653.994 911.218 656.425 907.119 658.141C903.019 659.762 899.111 660.572 895.393 660.572C892.247 660.572 889.387 660 886.813 658.856C884.239 657.617 881.998 655.853 880.092 653.565C878.185 651.182 876.66 648.179 875.516 644.556C874.467 640.838 873.943 636.405 873.943 631.257C873.943 625.918 874.61 620.294 875.945 614.383C877.279 608.472 879.091 602.609 881.379 596.794C883.667 590.979 886.479 585.449 889.816 580.206C893.152 574.963 896.823 570.339 900.827 566.335C904.831 562.236 909.121 558.994 913.697 556.611C918.273 554.228 923.039 553.036 927.997 553.036C932.287 553.036 935.814 553.942 938.579 555.753C941.439 557.469 943.631 559.757 945.157 562.617C946.777 565.382 947.921 568.528 948.589 572.055C949.256 575.582 949.59 579.11 949.59 582.637ZM895.25 627.539C895.25 628.588 895.44 629.684 895.822 630.828C896.203 631.972 896.727 632.973 897.395 633.831C898.062 634.689 898.872 635.452 899.826 636.119C900.874 636.691 901.971 636.977 903.115 636.977C907.405 636.977 911.218 635.499 914.555 632.544C917.891 629.589 920.656 625.966 922.849 621.676C925.041 617.386 926.71 612.81 927.854 607.948C929.093 603.086 929.713 598.653 929.713 594.649C929.713 593.505 929.617 592.266 929.427 590.931C929.331 589.596 929.045 588.357 928.569 587.213C928.187 586.069 927.52 585.116 926.567 584.353C925.709 583.495 924.517 583.066 922.992 583.066C919.941 583.066 917.129 583.829 914.555 585.354C911.981 586.879 909.645 588.929 907.548 591.503C905.546 593.982 903.782 596.842 902.257 600.083C900.731 603.229 899.397 606.47 898.253 609.807C897.204 613.048 896.441 616.242 895.965 619.388C895.488 622.534 895.25 625.251 895.25 627.539Z" fill="white"/>
<path d="M939.603 660.143C942.463 647.273 945.18 634.689 947.754 622.391C948.803 617.243 949.899 611.809 951.043 606.089C952.187 600.369 953.283 594.744 954.332 589.215C955.381 583.686 956.382 578.347 957.335 573.199C958.288 568.051 959.099 563.332 959.766 559.042C962.531 558.184 965.248 557.469 967.917 556.897C970.586 556.23 973.303 555.658 976.068 555.181C978.928 554.704 981.597 554.466 984.076 554.466C988.366 554.466 991.941 555.181 994.801 556.611C997.756 558.041 1000.14 559.995 1001.95 562.474C1003.76 564.857 1005.05 567.67 1005.81 570.911C1006.57 574.152 1006.96 577.632 1006.96 581.35C1006.96 586.689 1005.96 591.837 1003.95 596.794C1002.05 601.751 999.425 606.184 996.088 610.093C992.847 613.906 989.081 616.957 984.791 619.245C980.596 621.533 976.211 622.677 971.635 622.677H970.062C969.299 625.918 968.584 629.446 967.917 633.259C967.25 637.072 966.678 640.6 966.201 643.841C965.534 647.654 964.914 651.468 964.342 655.281L939.603 660.143ZM979.5 571.769C978.451 578.061 977.403 584.019 976.354 589.644C975.305 595.269 974.161 601.275 972.922 607.662C974.447 607.281 976.02 606.423 977.641 605.088C979.357 603.658 980.93 601.847 982.36 599.654C983.79 597.366 984.934 594.744 985.792 591.789C986.65 588.834 987.079 585.735 987.079 582.494C987.079 578.967 986.269 576.297 984.648 574.486C983.123 572.675 981.407 571.769 979.5 571.769Z" fill="white"/>
<path d="M0.679199 832.312C3.3832 817.96 6.0352 803.868 8.6352 790.036C9.5712 784.212 10.6112 778.18 11.7552 771.94C12.8992 765.596 13.9912 759.356 15.0312 753.22C16.0712 747.084 17.0592 741.156 17.9952 735.436C18.9312 729.612 19.7632 724.308 20.4912 719.524L45.7632 717.808C43.9952 725.088 42.2272 732.68 40.4592 740.584C38.7952 748.488 37.2352 756.184 35.7792 763.672L51.2232 761.956C52.6792 754.572 53.9792 747.448 55.1232 740.584C56.2672 733.616 57.7752 726.44 59.6472 719.056C62.0392 718.64 64.6912 718.328 67.6032 718.12C70.5152 717.808 73.2192 717.548 75.7152 717.34C78.2112 717.132 80.2912 716.976 81.9552 716.872C83.7232 716.664 84.6072 716.56 84.6072 716.56C83.1512 721.24 81.7472 726.388 80.3952 732.004C79.1472 737.516 77.8992 743.288 76.6512 749.32C75.4032 755.248 74.2072 761.28 73.0632 767.416C71.9192 773.552 70.8792 779.376 69.9432 784.888C67.6552 798.096 65.5232 811.616 63.5472 825.448L39.2112 828.256C40.5632 822.016 41.7592 815.932 42.7992 810.004C43.8392 805.012 44.8792 799.812 45.9192 794.404C47.0632 788.996 47.9472 784.368 48.5712 780.52L33.4392 781.924C32.7112 785.876 31.8272 790.452 30.7872 795.652C29.8512 800.852 28.9672 805.792 28.1352 810.472C26.9912 816.088 25.8472 821.704 24.7032 827.32L0.679199 832.312Z" fill="white"/>
<path d="M82.3269 832.156C84.7189 820.716 87.0069 809.432 89.1909 798.304C90.1269 793.624 91.0629 788.736 91.9989 783.64C92.9349 778.544 93.8189 773.552 94.6509 768.664C95.5869 763.672 96.3669 758.888 96.9909 754.312C97.7189 749.632 98.3429 745.368 98.8629 741.52C96.4709 741.208 94.0269 741.104 91.5309 741.208C89.1389 741.312 86.7469 741 84.3549 740.272C84.4589 738.608 84.5109 736.684 84.5109 734.5C84.5109 732.316 84.5629 730.132 84.6669 727.948C84.7709 725.556 84.8749 723.008 84.9789 720.304C87.6829 720.512 90.3869 720.668 93.0909 720.772C95.7949 720.876 98.4989 720.928 101.203 720.928C106.507 720.928 111.603 720.824 116.491 720.616C121.483 720.304 126.059 719.992 130.219 719.68C134.483 719.264 138.643 718.796 142.699 718.276L140.983 726.7C140.463 729.092 139.943 731.536 139.423 734.032C139.007 736.528 138.591 738.66 138.175 740.428C135.887 741.052 133.547 741.52 131.155 741.832C128.867 742.04 126.579 742.352 124.291 742.768C123.563 746.304 122.783 750.256 121.951 754.624C121.119 758.888 120.287 763.36 119.455 768.04C118.727 772.616 117.999 777.296 117.271 782.08C116.543 786.864 115.815 791.44 115.087 795.808C113.423 806.104 111.863 816.764 110.407 827.788L82.3269 832.156Z" fill="white"/>
<path d="M117.384 831.064C121.96 817.232 126.328 803.66 130.488 790.348C132.256 784.732 134.076 778.856 135.948 772.72C137.82 766.584 139.692 760.5 141.564 754.468C143.436 748.436 145.152 742.612 146.712 736.996C148.376 731.38 149.832 726.18 151.08 721.396C156.8 721.396 162.208 721.084 167.304 720.46C172.4 719.836 177.912 719.264 183.84 718.744C183.528 721.032 183.164 723.632 182.748 726.544C182.436 729.352 182.02 732.316 181.5 735.436C181.084 738.556 180.616 741.78 180.096 745.108C179.576 748.436 178.952 752.7 178.224 757.9C177.496 763.1 176.508 769.6 175.26 777.4H177.288C180.304 769.496 182.8 762.944 184.776 757.744C186.752 752.44 188.364 748.124 189.612 744.796C190.86 741.468 192.108 738.244 193.356 735.124C194.708 731.9 195.956 728.884 197.1 726.076C198.348 723.164 199.492 720.616 200.532 718.432C203.132 718.224 205.576 717.964 207.864 717.652C210.152 717.34 212.44 717.028 214.728 716.716C217.016 716.3 219.304 715.936 221.592 715.624C223.984 715.208 226.584 714.74 229.392 714.22C228.352 720.252 227.364 726.44 226.428 732.784C225.492 739.128 224.66 745.472 223.932 751.816C223.204 758.056 222.476 764.244 221.748 770.38C221.124 776.516 220.552 782.34 220.032 787.852C218.784 800.748 217.692 813.332 216.756 825.604L189.612 830.44C189.612 829.92 189.664 828.516 189.768 826.228C189.976 823.94 190.184 821.132 190.392 817.804C190.704 814.476 191.068 810.784 191.484 806.728C192.004 802.672 192.472 798.616 192.888 794.56C193.408 790.504 193.928 786.604 194.448 782.86C194.968 779.012 195.488 775.736 196.008 773.032H194.604C193.148 777.4 191.536 782.028 189.768 786.916C188 791.7 186.18 796.588 184.308 801.58C182.54 806.572 180.772 811.46 179.004 816.244C177.236 821.028 175.676 825.604 174.324 829.972C170.684 830.076 167.564 830.232 164.964 830.44C162.364 830.544 159.348 830.7 155.916 830.908L160.908 773.032H158.568C158.36 774.384 157.84 776.672 157.008 779.896C156.176 783.016 155.188 786.656 154.044 790.816C153.004 794.872 151.86 799.136 150.612 803.608C149.364 807.976 148.168 812.084 147.024 815.932C145.984 819.676 145.1 822.796 144.372 825.292C143.644 827.684 143.228 829.036 143.124 829.348L117.384 831.064Z" fill="white"/>
<path d="M261.706 827.008C258.482 827.008 255.05 827.112 251.41 827.32C247.874 827.528 244.286 827.84 240.646 828.256C237.006 828.672 233.418 829.244 229.882 829.972C226.45 830.596 223.33 831.376 220.522 832.312C221.146 827.632 221.874 822.432 222.706 816.712C223.538 810.992 224.474 805.064 225.514 798.928C226.658 792.792 227.75 786.604 228.79 780.364C229.934 774.124 231.078 768.144 232.222 762.424C234.822 748.8 237.578 734.916 240.49 720.772L267.79 717.184C264.982 729.248 262.278 741 259.678 752.44C258.534 757.328 257.39 762.424 256.246 767.728C255.102 772.928 254.01 778.024 252.97 783.016C251.93 788.008 250.994 792.844 250.162 797.524C249.33 802.204 248.654 806.364 248.134 810.004C250.734 809.796 253.49 809.692 256.402 809.692C259.418 809.588 262.07 809.536 264.358 809.536C264.462 811.512 264.618 813.488 264.826 815.464C265.034 817.336 265.242 819.052 265.45 820.612C265.762 822.172 265.97 823.576 266.074 824.824C266.282 825.968 266.438 826.748 266.542 827.164C265.71 827.164 264.878 827.164 264.046 827.164C263.318 827.06 262.538 827.008 261.706 827.008Z" fill="white"/>
<path d="M508.102 32.945C503.802 28.215 498.069 24.345 490.902 21.335C483.736 18.1816 475.566 16.605 466.392 16.605C452.919 16.605 443.101 19.185 436.938 24.345C430.774 29.3617 427.692 36.2417 427.692 44.985C427.692 51.005 429.197 55.735 432.207 59.175C435.217 62.615 439.804 65.4817 445.967 67.775C452.274 69.925 460.301 72.075 470.047 74.225C480.941 76.5183 490.329 79.2417 498.212 82.395C506.096 85.5483 512.187 89.8483 516.487 95.295C520.787 100.598 522.938 107.837 522.938 117.01C522.938 126.327 520.572 134.067 515.842 140.23C511.112 146.393 504.591 150.98 496.277 153.99C487.964 156.857 478.504 158.29 467.897 158.29C444.104 158.29 423.679 150.908 406.622 136.145L414.147 123.89C419.594 129.623 427.047 134.568 436.507 138.725C446.111 142.882 456.717 144.96 468.327 144.96C480.367 144.96 489.827 142.738 496.707 138.295C503.587 133.852 507.027 127.258 507.027 118.515C507.027 112.208 505.307 107.192 501.867 103.465C498.427 99.595 493.267 96.4417 486.387 94.005C479.507 91.5683 471.051 89.2033 461.017 86.91C450.411 84.4733 441.452 81.75 434.142 78.74C426.976 75.73 421.529 71.7883 417.802 66.915C414.076 62.0417 412.212 55.4483 412.212 47.135C412.212 37.675 414.506 29.72 419.092 23.27C423.822 16.6766 430.272 11.7316 438.442 8.43498C446.612 4.99498 456.001 3.27498 466.607 3.27498C476.641 3.27498 485.671 4.85165 493.697 8.00499C501.724 11.015 508.962 15.315 515.412 20.905L508.102 32.945Z" fill="white"/>
<path d="M626.443 157L584.948 99.595L561.083 121.955V157H546.463V0.0499878H561.083V106.26L624.508 45.2H640.633L594.838 90.995L642.353 157H626.443Z" fill="white"/>
<path d="M660.472 21.55V0.0499878H675.092V21.55H660.472ZM660.472 157V44.985H675.092V157H660.472Z" fill="white"/>
<path d="M707.938 0.0499878H722.558V131.63C722.558 137.22 723.49 140.875 725.353 142.595C727.36 144.315 729.868 145.175 732.878 145.175C735.458 145.175 738.038 144.888 740.618 144.315C743.342 143.742 745.563 143.168 747.283 142.595L749.863 154.42C747.14 155.567 743.772 156.498 739.758 157.215C735.888 157.932 732.52 158.29 729.653 158.29C723.06 158.29 717.757 156.355 713.743 152.485C709.873 148.615 707.938 143.312 707.938 136.575V0.0499878Z" fill="white"/>
<path d="M766.517 0.0499878H781.137V131.63C781.137 137.22 782.069 140.875 783.932 142.595C785.939 144.315 788.447 145.175 791.457 145.175C794.037 145.175 796.617 144.888 799.197 144.315C801.921 143.742 804.142 143.168 805.862 142.595L808.442 154.42C805.719 155.567 802.351 156.498 798.337 157.215C794.467 157.932 791.099 158.29 788.232 158.29C781.639 158.29 776.336 156.355 772.322 152.485C768.452 148.615 766.517 143.312 766.517 136.575V0.0499878Z" fill="white"/>
<path d="M861.216 159.15C852.043 159.15 843.515 157.645 835.631 154.635C827.891 151.482 821.083 146.895 815.206 140.875L821.226 130.555C827.533 136.432 833.84 140.732 840.146 143.455C846.596 146.035 853.405 147.325 860.571 147.325C869.171 147.325 876.195 145.605 881.641 142.165C887.231 138.582 890.026 133.493 890.026 126.9C890.026 122.457 888.665 119.088 885.941 116.795C883.361 114.358 879.563 112.423 874.546 110.99C869.673 109.557 863.796 107.908 856.916 106.045C849.176 103.895 842.655 101.673 837.351 99.38C832.191 96.9433 828.25 93.9333 825.526 90.35C822.946 86.6233 821.656 81.8217 821.656 75.945C821.656 68.7783 823.448 62.7583 827.031 57.885C830.758 53.0117 835.775 49.3567 842.081 46.92C848.531 44.34 855.698 43.05 863.581 43.05C872.181 43.05 879.778 44.4117 886.371 47.135C892.965 49.8583 898.34 53.6567 902.496 58.53L895.401 68.42C891.531 63.8333 886.73 60.465 880.996 58.315C875.406 56.0217 869.315 54.875 862.721 54.875C858.135 54.875 853.763 55.52 849.606 56.81C845.45 57.9567 842.01 59.9633 839.286 62.83C836.706 65.5533 835.416 69.3517 835.416 74.225C835.416 80.245 837.638 84.4017 842.081 86.695C846.525 88.9883 853.261 91.425 862.291 94.005C870.748 96.2983 878.13 98.5917 884.436 100.885C890.743 103.178 895.616 106.26 899.056 110.13C902.496 113.857 904.216 119.088 904.216 125.825C904.216 136.288 900.275 144.458 892.391 150.335C884.508 156.212 874.116 159.15 861.216 159.15Z" fill="white"/>
<path d="M544.702 308.632C544.702 311.791 543.843 315.018 542.127 318.314C540.41 321.61 538.075 324.597 535.123 327.275C532.239 329.884 528.874 332.047 525.029 333.764C521.252 335.412 517.338 336.236 513.286 336.236C510.952 336.236 508.755 335.961 506.695 335.412C504.635 334.863 502.815 334.039 501.236 332.94C499.725 331.773 498.523 330.331 497.631 328.614C496.738 326.829 496.292 324.734 496.292 322.331C496.292 320.752 496.601 319.001 497.219 317.078L515.244 316.048C515.244 317.421 515.587 318.417 516.273 319.035C516.96 319.653 517.819 319.962 518.849 319.962C519.741 319.962 520.703 319.756 521.733 319.344C522.763 318.863 523.724 318.245 524.617 317.49C525.578 316.735 526.333 315.876 526.883 314.915C527.501 313.954 527.81 312.889 527.81 311.722C527.81 310.074 527.02 308.563 525.441 307.19C523.861 305.817 521.252 305.13 517.613 305.13C514.935 305.13 512.291 305.336 509.682 305.748C507.072 306.091 504.875 306.332 503.09 306.469L504.944 291.225C507.004 289.92 509.132 288.547 511.33 287.105C513.527 285.594 515.518 284.152 517.304 282.779C519.432 281.268 521.458 279.723 523.381 278.144L506.798 278.453L508.034 260.737C514.282 260.462 520.085 260.188 525.441 259.913C527.707 259.913 530.007 259.879 532.342 259.81C534.745 259.673 536.976 259.57 539.036 259.501C541.096 259.364 542.951 259.295 544.599 259.295C546.315 259.226 547.654 259.192 548.616 259.192L546.144 281.131L525.544 291.946C528.977 292.564 531.895 293.422 534.299 294.521C536.771 295.62 538.762 296.924 540.273 298.435C541.852 299.877 542.985 301.491 543.672 303.276C544.358 304.993 544.702 306.778 544.702 308.632Z" fill="white"/>
<path d="M594.863 282.367C594.863 285.938 594.348 289.749 593.318 293.8C592.288 297.783 590.846 301.765 588.992 305.748C587.138 309.662 584.838 313.439 582.091 317.078C579.413 320.649 576.358 323.807 572.924 326.554C569.491 329.232 565.714 331.395 561.594 333.043C557.543 334.691 553.217 335.515 548.616 335.515C547.655 335.515 546.694 335.446 545.732 335.309C544.771 335.24 543.81 335.137 542.848 335C544.702 325.524 546.522 316.288 548.307 307.293C548.994 303.516 549.715 299.602 550.47 295.551C551.226 291.431 551.947 287.38 552.633 283.397C553.32 279.414 553.972 275.603 554.59 271.964C555.277 268.325 555.826 265.029 556.238 262.076C559.191 261.527 562.178 261.012 565.199 260.531C568.221 260.05 571.311 259.81 574.469 259.81C578.177 259.81 581.302 260.394 583.842 261.561C586.452 262.728 588.546 264.342 590.125 266.402C591.773 268.462 592.975 270.865 593.73 273.612C594.486 276.359 594.863 279.277 594.863 282.367ZM570.555 274.333C569.8 278.384 569.01 282.264 568.186 285.972C567.362 289.68 566.538 293.422 565.714 297.199C564.89 300.976 564.066 304.924 563.242 309.044C562.418 313.164 561.629 317.662 560.873 322.537C562.521 321.438 564.101 319.962 565.611 318.108C567.191 316.185 568.667 313.988 570.04 311.516C571.414 309.044 572.65 306.435 573.748 303.688C574.916 300.941 575.911 298.263 576.735 295.654C577.559 293.045 578.177 290.607 578.589 288.341C579.07 286.075 579.31 284.118 579.31 282.47C579.31 279.929 578.589 277.938 577.147 276.496C575.774 275.054 573.577 274.333 570.555 274.333Z" fill="white"/>
<path d="M660.445 282.367C660.445 285.938 659.93 289.749 658.9 293.8C657.87 297.783 656.428 301.765 654.574 305.748C652.72 309.662 650.42 313.439 647.673 317.078C644.995 320.649 641.94 323.807 638.506 326.554C635.073 329.232 631.296 331.395 627.176 333.043C623.125 334.691 618.799 335.515 614.198 335.515C613.237 335.515 612.276 335.446 611.314 335.309C610.353 335.24 609.392 335.137 608.43 335C610.284 325.524 612.104 316.288 613.889 307.293C614.576 303.516 615.297 299.602 616.052 295.551C616.808 291.431 617.529 287.38 618.215 283.397C618.902 279.414 619.554 275.603 620.172 271.964C620.859 268.325 621.408 265.029 621.82 262.076C624.773 261.527 627.76 261.012 630.781 260.531C633.803 260.05 636.893 259.81 640.051 259.81C643.759 259.81 646.884 260.394 649.424 261.561C652.034 262.728 654.128 264.342 655.707 266.402C657.355 268.462 658.557 270.865 659.312 273.612C660.068 276.359 660.445 279.277 660.445 282.367ZM636.137 274.333C635.382 278.384 634.592 282.264 633.768 285.972C632.944 289.68 632.12 293.422 631.296 297.199C630.472 300.976 629.648 304.924 628.824 309.044C628 313.164 627.211 317.662 626.455 322.537C628.103 321.438 629.683 319.962 631.193 318.108C632.773 316.185 634.249 313.988 635.622 311.516C636.996 309.044 638.232 306.435 639.33 303.688C640.498 300.941 641.493 298.263 642.317 295.654C643.141 293.045 643.759 290.607 644.171 288.341C644.652 286.075 644.892 284.118 644.892 282.47C644.892 279.929 644.171 277.938 642.729 276.496C641.356 275.054 639.159 274.333 636.137 274.333Z" fill="white"/>
<path d="M654.307 335.103L667.8 261.87L700.348 259.089C699.868 260.6 699.456 262.145 699.112 263.724C698.769 265.029 698.426 266.402 698.082 267.844C697.808 269.217 697.567 270.453 697.361 271.552C696.675 271.621 695.679 271.689 694.374 271.758C693.138 271.758 691.799 271.792 690.357 271.861C688.915 271.861 687.439 271.861 685.928 271.861C684.486 271.861 683.216 271.861 682.117 271.861L678.512 290.298C680.641 290.161 682.632 290.058 684.486 289.989C685.997 289.92 687.542 289.886 689.121 289.886C690.701 289.886 691.868 289.852 692.623 289.783C692.349 291.706 692.074 293.594 691.799 295.448C691.593 297.302 691.319 299.19 690.975 301.113C690.289 301.182 689.156 301.25 687.576 301.319C686.066 301.319 684.521 301.353 682.941 301.422C681.156 301.491 679.199 301.559 677.07 301.628L673.568 320.58L688.606 318.211L687.576 329.953L654.307 335.103Z" fill="white"/>
<path d="M734.217 309.559C734.217 313.404 733.461 316.906 731.951 320.065C730.509 323.155 728.517 325.833 725.977 328.099C723.505 330.365 720.552 332.116 717.119 333.352C713.754 334.588 710.115 335.206 706.201 335.206C703.454 335.206 700.707 334.485 697.961 333.043C695.214 331.532 692.57 329.163 690.03 325.936L697.652 311.001C698.132 311.894 698.853 312.821 699.815 313.782C700.776 314.675 701.84 315.464 703.008 316.151C704.244 316.838 705.445 317.421 706.613 317.902C707.849 318.314 708.947 318.52 709.909 318.52C710.733 318.52 711.591 318.383 712.484 318.108C713.376 317.833 714.2 317.421 714.956 316.872C715.711 316.323 716.295 315.705 716.707 315.018C717.187 314.263 717.428 313.404 717.428 312.443C717.428 310.795 716.878 309.284 715.78 307.911C714.75 306.469 713.445 305.13 711.866 303.894C710.286 302.589 708.57 301.285 706.716 299.98C704.862 298.675 703.145 297.302 701.566 295.86C700.055 294.418 698.75 292.804 697.652 291.019C696.553 289.234 696.004 287.242 696.004 285.045C696.004 281.474 697.068 278.144 699.197 275.054C701.325 271.964 703.969 269.32 707.128 267.123C710.355 264.857 713.857 263.072 717.634 261.767C721.41 260.462 724.981 259.81 728.346 259.81C730.2 259.81 731.951 260.05 733.599 260.531C735.247 260.943 736.654 261.664 737.822 262.694C739.058 263.655 740.019 264.891 740.706 266.402C741.461 267.913 741.839 269.801 741.839 272.067C741.839 273.028 741.736 273.99 741.53 274.951C741.392 275.912 741.255 276.942 741.118 278.041L726.183 282.367C726.32 281.818 726.423 281.268 726.492 280.719C726.629 280.17 726.698 279.62 726.698 279.071C726.698 277.011 726.32 275.535 725.565 274.642C724.878 273.681 723.951 273.2 722.784 273.2C722.234 273.2 721.548 273.406 720.724 273.818C719.968 274.23 719.179 274.779 718.355 275.466C717.599 276.084 716.947 276.839 716.398 277.732C715.848 278.625 715.574 279.586 715.574 280.616C715.574 282.264 716.02 283.637 716.913 284.736C717.874 285.835 719.041 286.865 720.415 287.826C721.788 288.787 723.264 289.783 724.844 290.813C726.492 291.774 728.002 293.045 729.376 294.624C730.749 296.203 731.882 298.195 732.775 300.598C733.736 302.933 734.217 305.92 734.217 309.559Z" fill="white"/>
<path d="M750.356 332.94C749.738 332.94 748.502 333.043 746.648 333.249C744.862 333.386 743.008 333.592 741.086 333.867C739.163 334.073 737.412 334.279 735.833 334.485C734.322 334.691 733.498 334.828 733.361 334.897C734.047 331.944 734.734 328.683 735.421 325.112C736.176 321.473 736.931 317.696 737.687 313.782C738.442 309.799 739.163 305.782 739.849 301.731C740.536 297.68 741.189 293.766 741.807 289.989C743.249 281.2 744.691 272.17 746.133 262.9L762.201 260.325C760.621 269.526 759.076 278.556 757.565 287.414C756.947 291.191 756.295 295.105 755.609 299.156C754.991 303.207 754.338 307.224 753.651 311.207C753.033 315.19 752.45 319.069 751.901 322.846C751.351 326.554 750.836 329.919 750.356 332.94Z" fill="white"/>
<path d="M809.699 295.757C809.218 302.761 807.845 308.872 805.579 314.091C803.313 319.241 800.566 323.567 797.339 327.069C794.18 330.571 790.747 333.18 787.039 334.897C783.399 336.614 779.932 337.472 776.636 337.472C774.095 337.472 771.657 336.923 769.323 335.824C767.057 334.725 765.065 333.077 763.349 330.88C761.701 328.614 760.396 325.799 759.435 322.434C758.473 319.069 757.993 315.121 757.993 310.589C757.993 301.731 759.263 294.006 761.804 287.414C764.344 280.822 767.537 275.329 771.383 270.934C775.297 266.539 779.451 263.278 783.846 261.149C788.309 259.02 792.463 257.956 796.309 257.956C799.055 257.956 801.424 258.437 803.416 259.398C805.476 260.359 807.158 261.664 808.463 263.312C809.767 264.891 810.694 266.78 811.244 268.977C811.862 271.106 812.171 273.372 812.171 275.775L798.06 278.453C797.442 275.706 796.618 273.749 795.588 272.582C794.558 271.415 793.39 270.831 792.086 270.831C790.369 270.831 788.481 272.067 786.421 274.539C784.361 276.942 782.438 280.067 780.653 283.912C778.867 287.757 777.357 291.98 776.121 296.581C774.885 301.182 774.198 305.714 774.061 310.177C774.061 314.434 774.679 317.49 775.915 319.344C777.219 321.129 778.867 322.022 780.859 322.022C782.232 322.022 783.64 321.679 785.082 320.992C786.592 320.305 787.931 319.344 789.099 318.108C790.266 316.803 791.227 315.327 791.983 313.679C792.807 311.962 793.253 310.108 793.322 308.117L782.301 309.765L784.258 299.568C787.485 299.156 790.644 298.744 793.734 298.332C796.343 297.989 799.09 297.577 801.974 297.096C804.926 296.615 807.501 296.169 809.699 295.757Z" fill="white"/>
<path d="M805.684 335.515C807.607 325.833 809.461 316.391 811.246 307.19C811.933 303.345 812.654 299.328 813.409 295.139C814.233 290.882 814.989 286.727 815.675 282.676C816.362 278.556 816.98 274.608 817.529 270.831C818.147 266.986 818.628 263.484 818.971 260.325C821.1 260.188 823.16 260.05 825.151 259.913C826.937 259.776 828.756 259.673 830.61 259.604C832.464 259.467 834.112 259.329 835.554 259.192C836.447 264.479 837.237 269.526 837.923 274.333C838.267 276.393 838.61 278.556 838.953 280.822C839.365 283.019 839.743 285.148 840.086 287.208C840.43 289.268 840.773 291.259 841.116 293.182C841.46 295.036 841.803 296.684 842.146 298.126C842.421 296.684 842.73 295.036 843.073 293.182C843.417 291.259 843.794 289.268 844.206 287.208C844.618 285.079 845.03 282.916 845.442 280.719C845.923 278.522 846.369 276.393 846.781 274.333C847.811 269.526 848.876 264.514 849.974 259.295L862.54 257.75C860.206 268.05 858.146 277.801 856.36 287.002C855.536 290.985 854.712 295.002 853.888 299.053C853.133 303.104 852.412 307.018 851.725 310.795C851.039 314.572 850.455 318.074 849.974 321.301C849.494 324.46 849.116 327.138 848.841 329.335C848.635 329.335 847.811 329.507 846.369 329.85C844.996 330.125 843.382 330.468 841.528 330.88C839.743 331.292 837.923 331.738 836.069 332.219C834.284 332.631 832.945 332.974 832.052 333.249C831.572 327.687 831.057 322.4 830.507 317.387C830.301 315.258 830.061 313.061 829.786 310.795C829.512 308.529 829.237 306.366 828.962 304.306C828.756 302.246 828.516 300.323 828.241 298.538C828.035 296.684 827.829 295.139 827.623 293.903C827.417 295.139 827.143 296.65 826.799 298.435C826.456 300.22 826.113 302.143 825.769 304.203C825.426 306.194 825.083 308.289 824.739 310.486C824.396 312.615 824.018 314.709 823.606 316.769C822.714 321.644 821.752 326.726 820.722 332.013L805.684 335.515Z" fill="white"/>
<path d="M1089.9 634.559C1089.9 638.404 1089.15 641.906 1087.64 645.065C1086.19 648.155 1084.2 650.833 1081.66 653.099C1079.19 655.365 1076.24 657.116 1072.8 658.352C1069.44 659.588 1065.8 660.206 1061.89 660.206C1059.14 660.206 1056.39 659.485 1053.65 658.043C1050.9 656.532 1048.26 654.163 1045.71 650.936L1053.34 636.001C1053.82 636.894 1054.54 637.821 1055.5 638.782C1056.46 639.675 1057.53 640.464 1058.69 641.151C1059.93 641.838 1061.13 642.421 1062.3 642.902C1063.53 643.314 1064.63 643.52 1065.59 643.52C1066.42 643.52 1067.28 643.383 1068.17 643.108C1069.06 642.833 1069.89 642.421 1070.64 641.872C1071.4 641.323 1071.98 640.705 1072.39 640.018C1072.87 639.263 1073.11 638.404 1073.11 637.443C1073.11 635.795 1072.56 634.284 1071.46 632.911C1070.43 631.469 1069.13 630.13 1067.55 628.894C1065.97 627.589 1064.25 626.285 1062.4 624.98C1060.55 623.675 1058.83 622.302 1057.25 620.86C1055.74 619.418 1054.44 617.804 1053.34 616.019C1052.24 614.234 1051.69 612.242 1051.69 610.045C1051.69 606.474 1052.75 603.144 1054.88 600.054C1057.01 596.964 1059.65 594.32 1062.81 592.123C1066.04 589.857 1069.54 588.072 1073.32 586.767C1077.1 585.462 1080.67 584.81 1084.03 584.81C1085.88 584.81 1087.64 585.05 1089.28 585.531C1090.93 585.943 1092.34 586.664 1093.51 587.694C1094.74 588.655 1095.7 589.891 1096.39 591.402C1097.15 592.913 1097.52 594.801 1097.52 597.067C1097.52 598.028 1097.42 598.99 1097.21 599.951C1097.08 600.912 1096.94 601.942 1096.8 603.041L1081.87 607.367C1082.01 606.818 1082.11 606.268 1082.18 605.719C1082.31 605.17 1082.38 604.62 1082.38 604.071C1082.38 602.011 1082.01 600.535 1081.25 599.642C1080.56 598.681 1079.64 598.2 1078.47 598.2C1077.92 598.2 1077.23 598.406 1076.41 598.818C1075.65 599.23 1074.86 599.779 1074.04 600.466C1073.28 601.084 1072.63 601.839 1072.08 602.732C1071.53 603.625 1071.26 604.586 1071.26 605.616C1071.26 607.264 1071.71 608.637 1072.6 609.736C1073.56 610.835 1074.73 611.865 1076.1 612.826C1077.47 613.787 1078.95 614.783 1080.53 615.813C1082.18 616.774 1083.69 618.045 1085.06 619.624C1086.43 621.203 1087.57 623.195 1088.46 625.598C1089.42 627.933 1089.9 630.92 1089.9 634.559Z" fill="white"/>
<path d="M1142.61 655.468C1141.37 657.047 1140.03 658.695 1138.59 660.412C1137.22 662.197 1136.01 663.708 1134.98 664.944C1133.61 663.021 1132.17 661.064 1130.66 659.073C1129.22 657.082 1127.81 655.056 1126.43 652.996L1125.92 652.172C1122.76 654.85 1119.57 656.91 1116.34 658.352C1113.18 659.725 1110.13 660.412 1107.17 660.412C1104.91 660.412 1102.85 660 1100.99 659.176C1099.14 658.283 1097.53 657.013 1096.15 655.365C1094.78 653.648 1093.68 651.485 1092.86 648.876C1092.1 646.198 1091.72 643.005 1091.72 639.297C1091.72 635.452 1092.2 631.4 1093.17 627.143C1094.13 622.886 1095.43 618.663 1097.08 614.474C1098.73 610.285 1100.75 606.303 1103.16 602.526C1105.56 598.749 1108.2 595.419 1111.09 592.535C1113.97 589.582 1117.06 587.248 1120.36 585.531C1123.65 583.814 1127.09 582.956 1130.66 582.956C1133.75 582.956 1136.29 583.608 1138.28 584.913C1140.34 586.149 1141.92 587.797 1143.02 589.857C1144.18 591.848 1145.01 594.114 1145.49 596.655C1145.97 599.196 1146.21 601.736 1146.21 604.277C1146.21 611.006 1145.39 617.221 1143.74 622.92C1142.09 628.551 1139.96 633.632 1137.35 638.164L1147.14 649.7C1145.63 651.691 1144.12 653.614 1142.61 655.468ZM1107.07 636.619C1107.07 637.374 1107.21 638.164 1107.48 638.988C1107.76 639.812 1108.13 640.533 1108.62 641.151C1109.1 641.769 1109.68 642.318 1110.37 642.799C1111.12 643.211 1111.91 643.417 1112.74 643.417C1115.14 643.417 1117.34 642.765 1119.33 641.46L1115.21 634.662C1118.09 632.465 1120.29 630.748 1121.8 629.512C1123.38 628.276 1124.51 627.383 1125.2 626.834C1126.02 626.147 1126.5 625.735 1126.64 625.598L1128.91 628.173C1129.8 625.632 1130.52 623.023 1131.07 620.345C1131.62 617.667 1131.89 615.195 1131.89 612.929C1131.89 612.105 1131.82 611.212 1131.69 610.251C1131.62 609.29 1131.41 608.397 1131.07 607.573C1130.79 606.749 1130.31 606.062 1129.63 605.513C1129.01 604.895 1128.15 604.586 1127.05 604.586C1124.86 604.586 1122.83 605.135 1120.98 606.234C1119.12 607.333 1117.44 608.809 1115.93 610.663C1114.49 612.448 1113.22 614.508 1112.12 616.843C1111.02 619.109 1110.06 621.444 1109.23 623.847C1108.48 626.182 1107.93 628.482 1107.59 630.748C1107.24 633.014 1107.07 634.971 1107.07 636.619Z" fill="white"/>
<path d="M1171.07 656.704C1168.95 656.704 1166.68 656.773 1164.28 656.91C1161.94 657.047 1159.57 657.253 1157.17 657.528C1154.77 657.803 1152.4 658.18 1150.06 658.661C1147.8 659.073 1145.74 659.588 1143.88 660.206C1144.29 657.116 1144.77 653.683 1145.32 649.906C1145.87 646.129 1146.49 642.215 1147.18 638.164C1147.93 634.113 1148.65 630.027 1149.34 625.907C1150.1 621.787 1150.85 617.839 1151.61 614.062C1153.32 605.067 1155.14 595.9 1157.07 586.561L1175.09 584.192C1173.24 592.157 1171.45 599.917 1169.73 607.47C1168.98 610.697 1168.22 614.062 1167.47 617.564C1166.71 620.997 1165.99 624.362 1165.31 627.658C1164.62 630.954 1164 634.147 1163.45 637.237C1162.9 640.327 1162.46 643.074 1162.11 645.477C1163.83 645.34 1165.65 645.271 1167.57 645.271C1169.56 645.202 1171.31 645.168 1172.82 645.168C1172.89 646.473 1173 647.777 1173.13 649.082C1173.27 650.318 1173.41 651.451 1173.55 652.481C1173.75 653.511 1173.89 654.438 1173.96 655.262C1174.1 656.017 1174.2 656.532 1174.27 656.807C1173.72 656.807 1173.17 656.807 1172.62 656.807C1172.14 656.738 1171.62 656.704 1171.07 656.704Z" fill="white"/>
<path d="M142.309 571.63C137.221 583.29 131.497 593.466 125.137 602.158C118.989 610.638 112.417 617.846 105.421 623.782C98.6372 629.506 91.7473 633.746 84.7513 636.502C77.7553 639.258 70.9713 640.636 64.3993 640.636C57.8272 640.636 51.7852 639.152 46.2732 636.184C40.9732 633.216 36.3092 628.764 32.2812 622.828C28.2532 616.892 24.9672 609.578 22.4232 600.886C20.0912 592.194 18.9252 582.018 18.9252 570.358C18.9252 550.43 21.6812 530.82 27.1932 511.528C32.7052 492.024 40.4432 474.534 50.4072 459.058C60.3712 443.582 72.1373 431.18 85.7053 421.852C99.4853 412.312 114.643 407.542 131.179 407.542C136.267 407.542 141.143 408.602 145.807 410.722C150.471 412.842 154.499 415.81 157.891 419.626C161.283 423.442 163.933 428.106 165.841 433.618C167.961 439.13 169.021 445.278 169.021 452.062C169.021 453.334 169.021 454.712 169.021 456.196C169.021 457.468 168.915 458.846 168.703 460.33L127.045 471.46C124.501 466.16 121.533 463.51 118.141 463.51C114.749 463.51 111.145 465.524 107.329 469.552C103.725 473.368 100.121 478.456 96.5173 484.816C92.9132 490.964 89.4152 497.96 86.0232 505.804C82.6312 513.436 79.6633 521.174 77.1193 529.018C74.5753 536.862 72.4552 544.388 70.7592 551.596C69.2752 558.592 68.5332 564.316 68.5332 568.768C68.5332 575.552 69.3812 580.322 71.0772 583.078C72.9852 585.834 75.4233 587.212 78.3913 587.212C80.7233 587.212 83.3733 586.364 86.3413 584.668C89.3093 582.76 92.0653 580.428 94.6093 577.672C97.1533 574.704 99.4853 571.418 101.605 567.814C103.725 564.21 105.209 560.606 106.057 557.002L142.309 571.63Z" fill="white"/>
<path d="M279.069 561.454C279.069 573.326 276.737 584.138 272.073 593.89C267.621 603.43 261.473 611.698 253.629 618.694C245.997 625.69 236.881 631.096 226.281 634.912C215.893 638.728 204.657 640.636 192.573 640.636C184.093 640.636 175.613 638.41 167.133 633.958C158.653 629.294 150.491 621.98 142.647 612.016L166.179 565.906C167.663 568.662 169.889 571.524 172.857 574.492C175.825 577.248 179.111 579.686 182.715 581.806C186.531 583.926 190.241 585.728 193.845 587.212C197.661 588.484 201.053 589.12 204.021 589.12C206.565 589.12 209.215 588.696 211.971 587.848C214.727 587 217.271 585.728 219.603 584.032C221.935 582.336 223.737 580.428 225.009 578.308C226.493 575.976 227.235 573.326 227.235 570.358C227.235 565.27 225.539 560.606 222.147 556.366C218.967 551.914 214.939 547.78 210.063 543.964C205.187 539.936 199.887 535.908 194.163 531.88C188.439 527.852 183.139 523.612 178.263 519.16C173.599 514.708 169.571 509.726 166.179 504.214C162.787 498.702 161.091 492.554 161.091 485.77C161.091 474.746 164.377 464.464 170.949 454.924C177.521 445.384 185.683 437.222 195.435 430.438C205.399 423.442 216.211 417.93 227.871 413.902C239.531 409.874 250.555 407.86 260.943 407.86C266.667 407.86 272.073 408.602 277.161 410.086C282.249 411.358 286.595 413.584 290.199 416.764C294.015 419.732 296.983 423.548 299.103 428.212C301.435 432.876 302.601 438.706 302.601 445.702C302.601 448.67 302.283 451.638 301.647 454.606C301.223 457.574 300.799 460.754 300.375 464.146L254.265 477.502C254.689 475.806 255.007 474.11 255.219 472.414C255.643 470.718 255.855 469.022 255.855 467.326C255.855 460.966 254.689 456.408 252.357 453.652C250.237 450.684 247.375 449.2 243.771 449.2C242.075 449.2 239.955 449.836 237.411 451.108C235.079 452.38 232.641 454.076 230.097 456.196C227.765 458.104 225.751 460.436 224.055 463.192C222.359 465.948 221.511 468.916 221.511 472.096C221.511 477.184 222.889 481.424 225.645 484.816C228.613 488.208 232.217 491.388 236.457 494.356C240.697 497.324 245.255 500.398 250.131 503.578C255.219 506.546 259.883 510.468 264.123 515.344C268.363 520.22 271.861 526.368 274.617 533.788C277.585 540.996 279.069 550.218 279.069 561.454Z" fill="white"/>
<path d="M415.71 561.454C415.71 573.326 413.378 584.138 408.714 593.89C404.262 603.43 398.114 611.698 390.27 618.694C382.638 625.69 373.522 631.096 362.922 634.912C352.534 638.728 341.298 640.636 329.214 640.636C320.734 640.636 312.254 638.41 303.774 633.958C295.294 629.294 287.132 621.98 279.288 612.016L302.82 565.906C304.304 568.662 306.53 571.524 309.498 574.492C312.466 577.248 315.752 579.686 319.356 581.806C323.172 583.926 326.882 585.728 330.486 587.212C334.302 588.484 337.694 589.12 340.662 589.12C343.206 589.12 345.856 588.696 348.612 587.848C351.368 587 353.912 585.728 356.244 584.032C358.576 582.336 360.378 580.428 361.65 578.308C363.134 575.976 363.876 573.326 363.876 570.358C363.876 565.27 362.18 560.606 358.788 556.366C355.608 551.914 351.58 547.78 346.704 543.964C341.828 539.936 336.528 535.908 330.804 531.88C325.08 527.852 319.78 523.612 314.904 519.16C310.24 514.708 306.212 509.726 302.82 504.214C299.428 498.702 297.732 492.554 297.732 485.77C297.732 474.746 301.018 464.464 307.59 454.924C314.162 445.384 322.324 437.222 332.076 430.438C342.04 423.442 352.852 417.93 364.512 413.902C376.172 409.874 387.196 407.86 397.584 407.86C403.308 407.86 408.714 408.602 413.802 410.086C418.89 411.358 423.236 413.584 426.84 416.764C430.656 419.732 433.624 423.548 435.744 428.212C438.076 432.876 439.242 438.706 439.242 445.702C439.242 448.67 438.924 451.638 438.288 454.606C437.864 457.574 437.44 460.754 437.016 464.146L390.906 477.502C391.33 475.806 391.648 474.11 391.86 472.414C392.284 470.718 392.496 469.022 392.496 467.326C392.496 460.966 391.33 456.408 388.998 453.652C386.878 450.684 384.016 449.2 380.412 449.2C378.716 449.2 376.596 449.836 374.052 451.108C371.72 452.38 369.282 454.076 366.738 456.196C364.406 458.104 362.392 460.436 360.696 463.192C359 465.948 358.152 468.916 358.152 472.096C358.152 477.184 359.53 481.424 362.286 484.816C365.254 488.208 368.858 491.388 373.098 494.356C377.338 497.324 381.896 500.398 386.772 503.578C391.86 506.546 396.524 510.468 400.764 515.344C405.004 520.22 408.502 526.368 411.258 533.788C414.226 540.996 415.71 550.218 415.71 561.454Z" fill="white"/>
<path d="M945.662 293.985C943.726 298.422 941.548 302.294 939.128 305.601C936.789 308.828 934.288 311.57 931.626 313.829C929.045 316.007 926.423 317.62 923.761 318.669C921.099 319.718 918.518 320.242 916.017 320.242C913.517 320.242 911.218 319.677 909.12 318.548C907.104 317.419 905.329 315.725 903.796 313.466C902.264 311.207 901.013 308.424 900.045 305.117C899.158 301.81 898.714 297.938 898.714 293.501C898.714 285.918 899.763 278.457 901.86 271.116C903.958 263.695 906.902 257.04 910.693 251.151C914.485 245.262 918.962 240.543 924.124 236.994C929.368 233.364 935.135 231.549 941.427 231.549C943.363 231.549 945.219 231.952 946.993 232.759C948.768 233.566 950.301 234.695 951.591 236.147C952.882 237.599 953.89 239.374 954.616 241.471C955.423 243.568 955.826 245.908 955.826 248.489C955.826 248.973 955.826 249.497 955.826 250.062C955.826 250.546 955.786 251.07 955.705 251.635L939.854 255.87C938.886 253.853 937.757 252.845 936.466 252.845C935.176 252.845 933.804 253.611 932.352 255.144C930.981 256.596 929.61 258.532 928.238 260.952C926.867 263.291 925.536 265.953 924.245 268.938C922.955 271.842 921.825 274.786 920.857 277.771C919.889 280.756 919.083 283.619 918.437 286.362C917.873 289.024 917.59 291.202 917.59 292.896C917.59 295.477 917.913 297.292 918.558 298.341C919.284 299.39 920.212 299.914 921.341 299.914C922.229 299.914 923.237 299.591 924.366 298.946C925.496 298.22 926.544 297.333 927.512 296.284C928.48 295.155 929.368 293.904 930.174 292.533C930.981 291.162 931.546 289.79 931.868 288.419L945.662 293.985Z" fill="white"/>
<path d="M983.251 288.782C975.668 300.075 967.884 311.651 959.898 323.509L939.812 318.79C941.586 316.451 943.885 313.305 946.709 309.352C949.613 305.319 952.799 300.801 956.268 295.8C959.817 290.799 963.568 285.434 967.521 279.707C971.473 273.98 975.426 268.172 979.379 262.283C983.332 256.314 987.163 250.465 990.874 244.738C994.665 239.011 998.093 233.606 1001.16 228.524C1001.88 229.008 1003.05 229.492 1004.67 229.976C1006.36 230.379 1008.18 230.742 1010.11 231.065C1012.13 231.388 1014.11 231.67 1016.04 231.912C1018.06 232.073 1019.71 232.235 1021 232.396C1018.58 236.026 1015.84 240.14 1012.77 244.738C1009.79 249.255 1006.64 253.974 1003.34 258.895C1000.03 263.816 996.641 268.857 993.173 274.02C989.785 279.102 986.477 284.023 983.251 288.782Z" fill="white"/>
<path d="M1055.55 293.985C1053.62 298.422 1051.44 302.294 1049.02 305.601C1046.68 308.828 1044.18 311.57 1041.52 313.829C1038.94 316.007 1036.32 317.62 1033.65 318.669C1030.99 319.718 1028.41 320.242 1025.91 320.242C1023.41 320.242 1021.11 319.677 1019.01 318.548C1017 317.419 1015.22 315.725 1013.69 313.466C1012.16 311.207 1010.91 308.424 1009.94 305.117C1009.05 301.81 1008.61 297.938 1008.61 293.501C1008.61 285.918 1009.66 278.457 1011.75 271.116C1013.85 263.695 1016.79 257.04 1020.59 251.151C1024.38 245.262 1028.85 240.543 1034.02 236.994C1039.26 233.364 1045.03 231.549 1051.32 231.549C1053.26 231.549 1055.11 231.952 1056.89 232.759C1058.66 233.566 1060.19 234.695 1061.48 236.147C1062.77 237.599 1063.78 239.374 1064.51 241.471C1065.32 243.568 1065.72 245.908 1065.72 248.489C1065.72 248.973 1065.72 249.497 1065.72 250.062C1065.72 250.546 1065.68 251.07 1065.6 251.635L1049.75 255.87C1048.78 253.853 1047.65 252.845 1046.36 252.845C1045.07 252.845 1043.7 253.611 1042.24 255.144C1040.87 256.596 1039.5 258.532 1038.13 260.952C1036.76 263.291 1035.43 265.953 1034.14 268.938C1032.85 271.842 1031.72 274.786 1030.75 277.771C1029.78 280.756 1028.98 283.619 1028.33 286.362C1027.77 289.024 1027.48 291.202 1027.48 292.896C1027.48 295.477 1027.81 297.292 1028.45 298.341C1029.18 299.39 1030.1 299.914 1031.23 299.914C1032.12 299.914 1033.13 299.591 1034.26 298.946C1035.39 298.22 1036.44 297.333 1037.4 296.284C1038.37 295.155 1039.26 293.904 1040.07 292.533C1040.87 291.162 1041.44 289.79 1041.76 288.419L1055.55 293.985Z" fill="white"/>
<path d="M1066.57 306.448C1066.9 304.915 1067.26 303.302 1067.66 301.608C1068.07 299.833 1068.43 298.139 1068.75 296.526C1069.07 294.913 1069.4 293.299 1069.72 291.686H1060.04C1060.2 289.508 1060.36 287.451 1060.52 285.515C1060.77 283.579 1061.01 281.603 1061.25 279.586C1061.49 277.489 1061.73 275.512 1061.98 273.657H1063.31C1064.19 273.657 1065.2 273.657 1066.33 273.657C1067.46 273.576 1068.59 273.496 1069.72 273.415C1070.85 273.334 1071.98 273.213 1073.11 273.052C1073.35 271.439 1073.63 269.825 1073.95 268.212C1074.2 266.921 1074.44 265.469 1074.68 263.856C1075 262.243 1075.33 260.67 1075.65 259.137C1078.15 258.976 1080.61 258.814 1083.03 258.653C1085.45 258.492 1087.87 258.209 1090.29 257.806C1089.89 259.419 1089.48 261.113 1089.08 262.888C1088.68 264.663 1088.27 266.276 1087.87 267.728C1087.47 269.583 1087.1 271.318 1086.78 272.931C1087.91 272.85 1089.08 272.729 1090.29 272.568C1091.34 272.407 1092.39 272.286 1093.44 272.205C1094.48 272.124 1095.45 272.044 1096.34 271.963C1095.94 273.738 1095.53 275.432 1095.13 277.045C1094.81 278.658 1094.48 280.272 1094.16 281.885C1093.84 283.418 1093.52 284.991 1093.19 286.604C1092.95 288.217 1092.67 289.952 1092.35 291.807C1091.54 291.807 1090.57 291.807 1089.44 291.807C1088.39 291.726 1087.39 291.686 1086.42 291.686C1085.21 291.686 1084 291.646 1082.79 291.565C1082.71 293.178 1082.55 294.792 1082.3 296.405C1082.14 297.776 1081.94 299.269 1081.7 300.882C1081.54 302.495 1081.3 304.068 1080.97 305.601L1066.57 306.448Z" fill="white"/>
<path d="M1104.15 306.448C1104.47 304.915 1104.84 303.302 1105.24 301.608C1105.64 299.833 1106 298.139 1106.33 296.526C1106.65 294.913 1106.97 293.299 1107.3 291.686H1097.62C1097.78 289.508 1097.94 287.451 1098.1 285.515C1098.34 283.579 1098.58 281.603 1098.83 279.586C1099.07 277.489 1099.31 275.512 1099.55 273.657H1100.88C1101.77 273.657 1102.78 273.657 1103.91 273.657C1105.04 273.576 1106.17 273.496 1107.3 273.415C1108.42 273.334 1109.55 273.213 1110.68 273.052C1110.93 271.439 1111.21 269.825 1111.53 268.212C1111.77 266.921 1112.01 265.469 1112.26 263.856C1112.58 262.243 1112.9 260.67 1113.22 259.137C1115.73 258.976 1118.19 258.814 1120.61 258.653C1123.03 258.492 1125.45 258.209 1127.87 257.806C1127.46 259.419 1127.06 261.113 1126.66 262.888C1126.25 264.663 1125.85 266.276 1125.45 267.728C1125.04 269.583 1124.68 271.318 1124.36 272.931C1125.49 272.85 1126.66 272.729 1127.87 272.568C1128.91 272.407 1129.96 272.286 1131.01 272.205C1132.06 272.124 1133.03 272.044 1133.92 271.963C1133.51 273.738 1133.11 275.432 1132.71 277.045C1132.38 278.658 1132.06 280.272 1131.74 281.885C1131.42 283.418 1131.09 284.991 1130.77 286.604C1130.53 288.217 1130.25 289.952 1129.92 291.807C1129.12 291.807 1128.15 291.807 1127.02 291.807C1125.97 291.726 1124.96 291.686 1123.99 291.686C1122.78 291.686 1121.57 291.646 1120.36 291.565C1120.28 293.178 1120.12 294.792 1119.88 296.405C1119.72 297.776 1119.52 299.269 1119.27 300.882C1119.11 302.495 1118.87 304.068 1118.55 305.601L1104.15 306.448Z" fill="white"/>
<path d="M89.9329 367.14C87.5496 367.521 84.9279 367.95 82.0679 368.427C79.2079 368.904 76.6339 369.333 74.3459 369.714C74.7272 366.568 75.1086 363.47 75.4899 360.419C75.7759 357.75 76.0142 355.08 76.2049 352.411C76.4909 349.742 76.7292 347.454 76.9199 345.547H64.4789L58.7589 366.139C56.6616 366.425 54.1829 366.759 51.3229 367.14C48.4629 367.426 45.7936 367.712 43.3149 367.998C40.2642 368.379 37.2612 368.761 34.3059 369.142C38.1192 356.463 41.8849 343.974 45.6029 331.676C47.1282 326.528 48.7012 321.142 50.3219 315.517C52.0379 309.892 53.7062 304.315 55.3269 298.786C57.0429 293.161 58.6636 287.775 60.1889 282.627C61.7142 277.479 63.0489 272.76 64.1929 268.47C70.6756 267.993 77.2536 267.421 83.9269 266.754C90.6956 266.087 97.2736 265.181 103.661 264.037C103.375 267.088 103.041 270.901 102.66 275.477C102.374 279.958 102.088 284.867 101.802 290.206C101.516 295.545 101.23 301.122 100.944 306.937C100.658 312.752 100.372 318.472 100.086 324.097C99.6092 337.253 99.0849 351.219 98.5129 365.996C95.6529 366.473 92.7929 366.854 89.9329 367.14ZM67.9109 331.247C68.2922 331.247 68.9596 331.247 69.9129 331.247C70.9616 331.152 72.0102 331.104 73.0589 331.104C74.2029 331.009 75.2516 330.961 76.2049 330.961C77.1582 330.866 77.8256 330.77 78.2069 330.675C78.2069 330.103 78.2546 329.15 78.3499 327.815C78.5406 326.385 78.6836 324.812 78.7789 323.096C78.9696 321.285 79.1602 319.33 79.3509 317.233C79.5416 315.136 79.7322 313.086 79.9229 311.084C80.3042 306.222 80.7809 300.979 81.3529 295.354L82.2109 282.913L80.0659 283.056L76.7769 295.354L67.9109 331.247Z" fill="white"/>
<path d="M99.7451 370.143C102.319 357.464 104.798 345.07 107.181 332.963C108.039 327.815 108.992 322.476 110.041 316.947C111.09 311.322 112.043 305.793 112.901 300.359C113.854 294.83 114.712 289.539 115.475 284.486C116.333 279.338 117 274.667 117.477 270.472C122.911 268.756 128.774 267.517 135.066 266.754C141.358 265.896 147.602 265.467 153.799 265.467C157.517 265.467 160.568 265.896 162.951 266.754C165.43 267.612 167.336 268.851 168.671 270.472C170.101 271.997 171.102 273.809 171.674 275.906C172.246 278.003 172.532 280.339 172.532 282.913C172.532 286.726 171.865 290.492 170.53 294.21C169.195 297.833 167.384 301.312 165.096 304.649C162.903 307.89 160.329 310.893 157.374 313.658C154.514 316.327 151.416 318.52 148.079 320.236C149.795 324.049 151.606 328.244 153.513 332.82C155.515 337.301 157.374 341.591 159.09 345.69C160.997 350.457 162.951 355.223 164.953 359.99L142.788 367.712C140.881 361.134 139.165 354.937 137.64 349.122C136.973 346.739 136.305 344.308 135.638 341.829C134.971 339.255 134.351 336.872 133.779 334.679C133.207 332.391 132.73 330.389 132.349 328.673C131.968 326.957 131.729 325.622 131.634 324.669L129.775 325.241C129.203 328.292 128.488 332.01 127.63 336.395C126.867 340.78 126.152 345.023 125.485 349.122C124.627 353.984 123.769 358.989 122.911 364.137L99.7451 370.143ZM133.35 308.081C135.161 307.89 137.354 307.128 139.928 305.793C142.597 304.458 145.124 302.885 147.507 301.074C149.89 299.167 151.94 297.213 153.656 295.211C155.372 293.209 156.23 291.445 156.23 289.92C156.23 288.871 155.896 288.061 155.229 287.489C154.562 286.822 153.608 286.345 152.369 286.059C151.225 285.678 149.938 285.439 148.508 285.344C147.078 285.249 145.6 285.201 144.075 285.201C143.026 285.201 141.93 285.249 140.786 285.344C139.737 285.344 138.784 285.344 137.926 285.344L133.35 308.081Z" fill="white"/>
<path d="M235.5 296.927C235.5 301.884 234.785 307.175 233.355 312.8C231.925 318.329 229.923 323.859 227.349 329.388C224.775 334.822 221.582 340.065 217.768 345.118C214.05 350.075 209.808 354.461 205.041 358.274C200.275 361.992 195.031 364.995 189.311 367.283C183.687 369.571 177.681 370.715 171.293 370.715C169.959 370.715 168.624 370.62 167.289 370.429C165.955 370.334 164.62 370.191 163.285 370C165.859 356.844 168.386 344.022 170.864 331.533C171.818 326.29 172.819 320.856 173.867 315.231C174.916 309.511 175.917 303.886 176.87 298.357C177.824 292.828 178.729 287.537 179.587 282.484C180.541 277.431 181.303 272.855 181.875 268.756C185.975 267.993 190.122 267.278 194.316 266.611C198.511 265.944 202.801 265.61 207.186 265.61C212.334 265.61 216.672 266.42 220.199 268.041C223.822 269.662 226.73 271.902 228.922 274.762C231.21 277.622 232.879 280.959 233.927 284.772C234.976 288.585 235.5 292.637 235.5 296.927ZM201.752 285.773C200.704 291.398 199.607 296.784 198.463 301.932C197.319 307.08 196.175 312.276 195.031 317.519C193.887 322.762 192.743 328.244 191.599 333.964C190.455 339.684 189.359 345.928 188.31 352.697C190.598 351.172 192.791 349.122 194.888 346.548C197.081 343.879 199.131 340.828 201.037 337.396C202.944 333.964 204.66 330.341 206.185 326.528C207.806 322.715 209.188 318.997 210.332 315.374C211.476 311.751 212.334 308.367 212.906 305.221C213.574 302.075 213.907 299.358 213.907 297.07C213.907 293.543 212.906 290.778 210.904 288.776C208.998 286.774 205.947 285.773 201.752 285.773Z" fill="white"/>
<path d="M285.322 342.115C283.988 347.549 282.081 352.173 279.602 355.986C277.219 359.799 274.359 362.945 271.022 365.424C267.781 367.903 264.301 369.714 260.583 370.858C256.865 372.002 253.147 372.574 249.429 372.574C247.237 372.574 244.996 372.193 242.708 371.43C240.42 370.763 238.371 369.714 236.559 368.284C234.748 366.854 233.223 365.043 231.983 362.85C230.839 360.657 230.267 358.083 230.267 355.128C230.267 354.747 230.267 354.365 230.267 353.984C230.267 353.603 230.315 353.221 230.41 352.84C230.792 348.931 231.411 344.212 232.269 338.683C233.127 333.154 234.033 327.386 234.986 321.38C235.94 315.374 236.988 309.368 238.132 303.362C239.276 297.261 240.277 291.731 241.135 286.774C242.089 281.817 242.899 277.717 243.566 274.476C244.234 271.139 244.663 269.09 244.853 268.327C246.855 268.136 249.239 267.898 252.003 267.612C254.768 267.326 257.342 267.088 259.725 266.897C262.681 266.611 265.588 266.325 268.448 266.039C265.97 277.574 263.777 288.013 261.87 297.356C261.012 301.36 260.154 305.364 259.296 309.368C258.534 313.372 257.771 317.042 257.008 320.379C256.341 323.716 255.721 326.623 255.149 329.102C254.673 331.485 254.244 333.44 253.862 334.965C253.576 336.49 253.195 338.445 252.718 340.828C252.337 343.116 252.146 345.213 252.146 347.12C252.146 348.645 252.528 349.932 253.29 350.981C254.053 351.934 255.006 352.411 256.15 352.411C257.771 352.411 259.106 351.791 260.154 350.552C261.203 349.217 262.061 347.644 262.728 345.833C263.491 344.022 264.015 342.21 264.301 340.399C264.683 338.492 265.016 337.015 265.302 335.966C265.874 333.201 266.494 330.151 267.161 326.814C267.924 323.382 268.639 319.855 269.306 316.232C270.069 312.514 270.784 308.748 271.451 304.935C272.214 301.122 272.929 297.404 273.596 293.781C275.217 285.392 276.79 276.716 278.315 267.755L300.051 266.325C300.051 266.325 299.813 267.564 299.336 270.043C298.86 272.522 298.24 275.811 297.477 279.91C296.715 284.009 295.857 288.681 294.903 293.924C294.045 299.167 293.044 304.649 291.9 310.369C290.756 315.994 289.612 321.571 288.468 327.1C287.42 332.534 286.371 337.539 285.322 342.115Z" fill="white"/>
<path d="M308.337 367.14C307.479 367.14 305.811 367.283 303.332 367.569C300.854 367.76 298.28 368.046 295.61 368.427C292.941 368.713 290.51 368.999 288.317 369.285C286.22 369.571 285.076 369.762 284.885 369.857C286.029 365.758 287.173 361.229 288.317 356.272C289.461 351.219 290.605 345.976 291.749 340.542C292.989 335.013 294.133 329.436 295.181 323.811C296.325 318.186 297.422 312.752 298.47 307.509C300.854 295.306 303.189 282.77 305.477 269.9L327.785 266.325C325.307 279.1 322.828 291.636 320.349 303.934C319.301 309.177 318.204 314.611 317.06 320.236C316.012 325.861 314.963 331.438 313.914 336.967C312.961 342.496 311.96 347.883 310.911 353.126C309.958 358.274 309.1 362.945 308.337 367.14Z" fill="white"/>
<path d="M315.229 370.715C317.899 357.273 320.473 344.165 322.951 331.39C323.905 326.051 324.906 320.474 325.954 314.659C327.098 308.748 328.147 302.981 329.1 297.356C330.054 291.636 330.912 286.154 331.674 280.911C332.532 275.572 333.2 270.71 333.676 266.325C336.632 266.134 339.492 265.944 342.256 265.753C344.735 265.562 347.261 265.419 349.835 265.324C352.409 265.133 354.697 264.943 356.699 264.752C357.939 272.093 359.035 279.1 359.988 285.773C360.465 288.633 360.942 291.636 361.418 294.782C361.99 297.833 362.515 300.788 362.991 303.648C363.468 306.508 363.945 309.273 364.421 311.942C364.898 314.516 365.375 316.804 365.851 318.806C366.233 316.804 366.662 314.516 367.138 311.942C367.615 309.273 368.139 306.508 368.711 303.648C369.283 300.693 369.855 297.69 370.427 294.639C371.095 291.588 371.714 288.633 372.286 285.773C373.716 279.1 375.194 272.14 376.719 264.895L394.165 262.75C390.924 277.05 388.064 290.587 385.585 303.362C384.441 308.891 383.297 314.468 382.153 320.093C381.105 325.718 380.104 331.152 379.15 336.395C378.197 341.638 377.387 346.5 376.719 350.981C376.052 355.366 375.528 359.084 375.146 362.135C374.86 362.135 373.716 362.373 371.714 362.85C369.808 363.231 367.567 363.708 364.993 364.28C362.515 364.852 359.988 365.472 357.414 366.139C354.936 366.711 353.077 367.188 351.837 367.569C351.17 359.847 350.455 352.506 349.692 345.547C349.406 342.592 349.073 339.541 348.691 336.395C348.31 333.249 347.929 330.246 347.547 327.386C347.261 324.526 346.928 321.857 346.546 319.378C346.26 316.804 345.974 314.659 345.688 312.943C345.402 314.659 345.021 316.756 344.544 319.235C344.068 321.714 343.591 324.383 343.114 327.243C342.638 330.008 342.161 332.915 341.684 335.966C341.208 338.921 340.683 341.829 340.111 344.689C338.872 351.458 337.537 358.512 336.107 365.853L315.229 370.715Z" fill="white"/>
<path d="M459.248 292.637C459.248 300.454 458.39 307.843 456.674 314.802C455.054 321.666 452.861 328.006 450.096 333.821C447.332 339.541 444.09 344.689 440.372 349.265C436.75 353.746 432.936 357.607 428.932 360.848C424.928 363.994 420.877 366.425 416.777 368.141C412.678 369.762 408.769 370.572 405.051 370.572C401.905 370.572 399.045 370 396.471 368.856C393.897 367.617 391.657 365.853 389.75 363.565C387.844 361.182 386.318 358.179 385.174 354.556C384.126 350.838 383.601 346.405 383.601 341.257C383.601 335.918 384.269 330.294 385.603 324.383C386.938 318.472 388.749 312.609 391.037 306.794C393.325 300.979 396.138 295.449 399.474 290.206C402.811 284.963 406.481 280.339 410.485 276.335C414.489 272.236 418.779 268.994 423.355 266.611C427.931 264.228 432.698 263.036 437.655 263.036C441.945 263.036 445.473 263.942 448.237 265.753C451.097 267.469 453.29 269.757 454.815 272.617C456.436 275.382 457.58 278.528 458.247 282.055C458.915 285.582 459.248 289.11 459.248 292.637ZM404.908 337.539C404.908 338.588 405.099 339.684 405.48 340.828C405.862 341.972 406.386 342.973 407.053 343.831C407.721 344.689 408.531 345.452 409.484 346.119C410.533 346.691 411.629 346.977 412.773 346.977C417.063 346.977 420.877 345.499 424.213 342.544C427.55 339.589 430.315 335.966 432.507 331.676C434.7 327.386 436.368 322.81 437.512 317.948C438.752 313.086 439.371 308.653 439.371 304.649C439.371 303.505 439.276 302.266 439.085 300.931C438.99 299.596 438.704 298.357 438.227 297.213C437.846 296.069 437.179 295.116 436.225 294.353C435.367 293.495 434.176 293.066 432.65 293.066C429.6 293.066 426.787 293.829 424.213 295.354C421.639 296.879 419.304 298.929 417.206 301.503C415.204 303.982 413.441 306.842 411.915 310.083C410.39 313.229 409.055 316.47 407.911 319.807C406.863 323.048 406.1 326.242 405.623 329.388C405.147 332.534 404.908 335.251 404.908 337.539Z" fill="white"/>
</svg>
